<svg xmlns="http://www.w3.org/2000/svg" xmlns:xlink="http://www.w3.org/1999/xlink" viewBox="0 0 638.41 262.22"><defs><style>.cls-1{fill:none;}.cls-2{isolation:isolate;}.cls-3{fill:#544b4c;}.cls-4{opacity:0.2;}.cls-4,.cls-89{mix-blend-mode:multiply;}.cls-5{clip-path:url(#clip-path);}.cls-6{opacity:0;}.cls-7{fill:#fff;}.cls-8{opacity:0.04;}.cls-9{clip-path:url(#clip-path-3);}.cls-10{fill:#f9f8fa;}.cls-11{opacity:0.08;}.cls-12{clip-path:url(#clip-path-4);}.cls-13{fill:#f1f1f4;}.cls-14{opacity:0.12;}.cls-15{clip-path:url(#clip-path-5);}.cls-16{fill:#eaebee;}.cls-17{opacity:0.15;}.cls-18{clip-path:url(#clip-path-6);}.cls-19{fill:#e3e3e8;}.cls-20{opacity:0.19;}.cls-21{clip-path:url(#clip-path-7);}.cls-22{fill:#dcdde3;}.cls-23{opacity:0.23;}.cls-24{clip-path:url(#clip-path-8);}.cls-25{fill:#d6d6dd;}.cls-26{opacity:0.27;}.cls-27{clip-path:url(#clip-path-9);}.cls-28{fill:#cfcfd7;}.cls-29{opacity:0.31;}.cls-30{clip-path:url(#clip-path-10);}.cls-31{fill:#c9cad2;}.cls-32{opacity:0.35;}.cls-33{clip-path:url(#clip-path-11);}.cls-34{fill:#c2c3cd;}.cls-35{opacity:0.38;}.cls-36{clip-path:url(#clip-path-12);}.cls-37{fill:#bbbbc7;}.cls-38{opacity:0.42;}.cls-39{clip-path:url(#clip-path-13);}.cls-40{fill:#b4b4c1;}.cls-41{opacity:0.46;}.cls-42{clip-path:url(#clip-path-14);}.cls-43{fill:#aeadbc;}.cls-44{opacity:0.5;}.cls-45{clip-path:url(#clip-path-15);}.cls-46{fill:#a6a7b5;}.cls-47{opacity:0.54;}.cls-48{clip-path:url(#clip-path-16);}.cls-49{fill:#9fa0af;}.cls-50{opacity:0.58;}.cls-51{clip-path:url(#clip-path-17);}.cls-52{fill:#999aab;}.cls-53{opacity:0.62;}.cls-54{clip-path:url(#clip-path-18);}.cls-55{fill:#9192a4;}.cls-56{opacity:0.65;}.cls-57{clip-path:url(#clip-path-19);}.cls-58{fill:#8b8b9e;}.cls-59{opacity:0.69;}.cls-60{clip-path:url(#clip-path-20);}.cls-61{fill:#848499;}.cls-62{opacity:0.73;}.cls-63{clip-path:url(#clip-path-21);}.cls-64{fill:#7e7f94;}.cls-65{opacity:0.77;}.cls-66{clip-path:url(#clip-path-22);}.cls-67{fill:#78788e;}.cls-68{opacity:0.81;}.cls-69{clip-path:url(#clip-path-23);}.cls-70{fill:#707087;}.cls-71{opacity:0.85;}.cls-72{clip-path:url(#clip-path-24);}.cls-73{fill:#696982;}.cls-74{opacity:0.88;}.cls-75{clip-path:url(#clip-path-25);}.cls-76{fill:#63627c;}.cls-77{opacity:0.92;}.cls-78{clip-path:url(#clip-path-26);}.cls-79{fill:#5c5d77;}.cls-80{opacity:0.96;}.cls-81{clip-path:url(#clip-path-27);}.cls-82{fill:#565671;}.cls-83{clip-path:url(#clip-path-28);}.cls-84{fill:#4e4f6b;}.cls-85{clip-path:url(#clip-path-29);}.cls-86{fill:url(#linear-gradient);}.cls-87{clip-path:url(#clip-path-30);}.cls-88{fill:url(#linear-gradient-2);}.cls-90{clip-path:url(#clip-path-31);}.cls-91{clip-path:url(#clip-path-32);}.cls-92{fill:url(#linear-gradient-3);}.cls-93{clip-path:url(#clip-path-33);}.cls-94{fill:url(#linear-gradient-4);}.cls-95{clip-path:url(#clip-path-34);}.cls-96{clip-path:url(#clip-path-35);}.cls-97{fill:url(#linear-gradient-5);}.cls-98{clip-path:url(#clip-path-36);}.cls-99{fill:url(#linear-gradient-6);}</style><clipPath id="clip-path" transform="translate(45.33 43.37)"><rect class="cls-1" y="146.22" width="175.78" height="28.67"/></clipPath><clipPath id="clip-path-3" transform="translate(45.33 43.37)"><rect class="cls-1" x="2.92" y="146.72" width="169.95" height="27.67"/></clipPath><clipPath id="clip-path-4" transform="translate(45.33 43.37)"><rect class="cls-1" x="5.83" y="147.23" width="164.13" height="26.66"/></clipPath><clipPath id="clip-path-5" transform="translate(45.33 43.37)"><rect class="cls-1" x="8.74" y="147.74" width="158.31" height="25.64"/></clipPath><clipPath id="clip-path-6" transform="translate(45.33 43.37)"><rect class="cls-1" x="11.65" y="148.25" width="152.48" height="24.62"/></clipPath><clipPath id="clip-path-7" transform="translate(45.33 43.37)"><rect class="cls-1" x="14.56" y="148.75" width="146.66" height="23.61"/></clipPath><clipPath id="clip-path-8" transform="translate(45.33 43.37)"><rect class="cls-1" x="17.48" y="149.26" width="140.83" height="22.6"/></clipPath><clipPath id="clip-path-9" transform="translate(45.33 43.37)"><rect class="cls-1" x="20.39" y="149.77" width="135.01" height="21.58"/></clipPath><clipPath id="clip-path-10" transform="translate(45.33 43.37)"><rect class="cls-1" x="23.3" y="150.27" width="129.17" height="20.56"/></clipPath><clipPath id="clip-path-11" transform="translate(45.33 43.37)"><rect class="cls-1" x="26.22" y="150.78" width="123.35" height="19.56"/></clipPath><clipPath id="clip-path-12" transform="translate(45.33 43.37)"><rect class="cls-1" x="29.13" y="151.29" width="117.52" height="18.54"/></clipPath><clipPath id="clip-path-13" transform="translate(45.33 43.37)"><rect class="cls-1" x="32.05" y="151.79" width="111.7" height="17.53"/></clipPath><clipPath id="clip-path-14" transform="translate(45.33 43.37)"><rect class="cls-1" x="34.95" y="152.3" width="105.87" height="16.51"/></clipPath><clipPath id="clip-path-15" transform="translate(45.33 43.37)"><rect class="cls-1" x="37.87" y="152.81" width="100.05" height="15.49"/></clipPath><clipPath id="clip-path-16" transform="translate(45.33 43.37)"><rect class="cls-1" x="40.79" y="153.32" width="94.21" height="14.47"/></clipPath><clipPath id="clip-path-17" transform="translate(45.33 43.37)"><rect class="cls-1" x="43.7" y="153.83" width="88.39" height="13.46"/></clipPath><clipPath id="clip-path-18" transform="translate(45.33 43.37)"><rect class="cls-1" x="46.61" y="154.33" width="82.56" height="12.45"/></clipPath><clipPath id="clip-path-19" transform="translate(45.33 43.37)"><rect class="cls-1" x="49.52" y="154.84" width="76.74" height="11.43"/></clipPath><clipPath id="clip-path-20" transform="translate(45.33 43.37)"><rect class="cls-1" x="52.44" y="155.35" width="70.9" height="10.4"/></clipPath><clipPath id="clip-path-21" transform="translate(45.33 43.37)"><rect class="cls-1" x="55.36" y="155.86" width="65.09" height="9.41"/></clipPath><clipPath id="clip-path-22" transform="translate(45.33 43.37)"><rect class="cls-1" x="58.26" y="156.36" width="59.27" height="8.39"/></clipPath><clipPath id="clip-path-23" transform="translate(45.33 43.37)"><rect class="cls-1" x="61.18" y="156.86" width="53.43" height="7.38"/></clipPath><clipPath id="clip-path-24" transform="translate(45.33 43.37)"><rect class="cls-1" x="64.09" y="157.38" width="47.62" height="6.35"/></clipPath><clipPath id="clip-path-25" transform="translate(45.33 43.37)"><rect class="cls-1" x="67.01" y="157.88" width="41.78" height="5.35"/></clipPath><clipPath id="clip-path-26" transform="translate(45.33 43.37)"><rect class="cls-1" x="69.92" y="158.39" width="35.95" height="4.33"/></clipPath><clipPath id="clip-path-27" transform="translate(45.33 43.37)"><rect class="cls-1" x="72.83" y="158.9" width="30.13" height="3.31"/></clipPath><clipPath id="clip-path-28" transform="translate(45.33 43.37)"><rect class="cls-1" x="75.75" y="159.4" width="24.3" height="2.31"/></clipPath><clipPath id="clip-path-29" transform="translate(45.33 43.37)"><path class="cls-1" d="M12.5,82.58a9.43,9.43,0,1,0,12.22-5.36,9.14,9.14,0,0,0-3.42-.65,9.45,9.45,0,0,0-8.8,6"/></clipPath><linearGradient id="linear-gradient" x1="-953.49" y1="1339.97" x2="-953.06" y2="1339.97" gradientTransform="matrix(-0.02, -195.39, -195.39, 0.02, 261810.36, -186167.77)" gradientUnits="userSpaceOnUse"><stop offset="0" stop-color="#dbd817"/><stop offset="0.25" stop-color="#93c256"/><stop offset="0.4" stop-color="#59b787"/><stop offset="0.58" stop-color="#40b5a8"/><stop offset="0.72" stop-color="#19afd4"/><stop offset="0.87" stop-color="#4f95d0"/><stop offset="1" stop-color="#3079bd"/></linearGradient><clipPath id="clip-path-30" transform="translate(45.33 43.37)"><path class="cls-1" d="M34.44,50.72c.77,14.43,4,47.7-.11,53.93-3.8,5.71-13.47,2.08-17.85,1.11-1.8-.4-2.76,1.44-1.42,2.89,1,1.09,44.73,56.53,106,23.62l-9.51-18c-53.72,28.42-72.92-65.15-73-65.73a2.21,2.21,0,0,0-2.07-1.46c-1.07,0-2.12.9-2,3.64"/></clipPath><linearGradient id="linear-gradient-2" x1="-953.49" y1="1340.02" x2="-953.06" y2="1340.02" gradientTransform="matrix(-136.94, -139.38, -139.38, 136.94, 56341.28, -316231.48)" xlink:href="#linear-gradient"/><clipPath id="clip-path-31" transform="translate(45.33 43.37)"><rect class="cls-1" x="35.06" y="15.56" width="78.85" height="125.69"/></clipPath><clipPath id="clip-path-32" transform="translate(45.33 43.37)"><path class="cls-1" d="M100.05,29.08c-1.1-1.65-2.8-1.76-3.22.05-1,4.37-1.88,14.66-8.67,15.64-7.4,1.06-36-16.18-48.76-23.06-4.53-2.45-5,1.68-3.7,2.73.46.36,84.28,52,9.16,108.45A121.67,121.67,0,0,0,56.12,138a70.71,70.71,0,0,0,11.62,3.29C137.49,113,110.29,44.47,100.05,29.08"/></clipPath><linearGradient id="linear-gradient-3" x1="-952.46" y1="1342.19" x2="-952.03" y2="1342.19" gradientTransform="matrix(-365.49, -0.01, -0.01, 365.49, -347949.36, -490481.92)" gradientUnits="userSpaceOnUse"><stop offset="0" stop-color="#9a358b"/><stop offset="0.18" stop-color="#d51381"/><stop offset="0.34" stop-color="#e71e6e"/><stop offset="0.53" stop-color="#e7424d"/><stop offset="0.7" stop-color="#ed6e2b"/><stop offset="0.78" stop-color="#ed722a"/><stop offset="0.86" stop-color="#ee7e28"/><stop offset="0.87" stop-color="#ee7f28"/><stop offset="1" stop-color="#f2ba20"/><stop offset="1" stop-color="#f2bb20"/></linearGradient><clipPath id="clip-path-33" transform="translate(45.33 43.37)"><path class="cls-1" d="M76.24,34.39a9.43,9.43,0,1,0-8.73-10.08,9.42,9.42,0,0,0,8.73,10.08"/></clipPath><linearGradient id="linear-gradient-4" x1="-952.45" y1="1342.18" x2="-952.03" y2="1342.18" gradientTransform="matrix(-151.61, 332.56, 332.56, 151.61, -590632.62, 113317.62)" xlink:href="#linear-gradient-3"/><clipPath id="clip-path-34" transform="translate(45.33 43.37)"><rect class="cls-1" x="67.93" width="95.99" height="119.64"/></clipPath><clipPath id="clip-path-35" transform="translate(45.33 43.37)"><path class="cls-1" d="M144.93,40.2a9.44,9.44,0,1,0,2.75-13.06,9.46,9.46,0,0,0-2.75,13.06"/></clipPath><linearGradient id="linear-gradient-5" x1="-951.38" y1="1340.46" x2="-950.95" y2="1340.46" gradientTransform="matrix(220.76, -125.2, -125.2, -220.76, 377963.53, 176935.07)" gradientUnits="userSpaceOnUse"><stop offset="0" stop-color="#ed6e2b"/><stop offset="0.21" stop-color="#ed7229"/><stop offset="0.43" stop-color="#ee7e24"/><stop offset="0.65" stop-color="#ef931a"/><stop offset="0.88" stop-color="#f1b00e"/><stop offset="0.96" stop-color="#f2bc08"/><stop offset="1" stop-color="#f2bc08"/></linearGradient><clipPath id="clip-path-36" transform="translate(45.33 43.37)"><path class="cls-1" d="M161.59,53.39c-4.09,1.84-12.8,7.39-17.7,2.57C138.57,50.71,135,17.48,132.73,3.2c-.79-5.09-4.38-3-4.41-1.31,0,.6,5.34,99.74-52.35,84.11,0,0,.44,2.93-1.6,9.43a55,55,0,0,1-6.44,13.85c44.36,40.82,94.89-52.08,95.64-53.35,1-1.7-.3-3.3-2-2.54"/></clipPath><linearGradient id="linear-gradient-6" x1="-951.39" y1="1340.44" x2="-950.96" y2="1340.44" gradientTransform="matrix(223.53, -126.77, -126.77, -223.53, 382700.62, 179158.19)" xlink:href="#linear-gradient-5"/></defs><title>logo</title><g class="cls-2"><g id="Layer_2" data-name="Layer 2"><g id="Capa_1" data-name="Capa 1"><path class="cls-3" d="M233.49,84.56a9.57,9.57,0,0,0,5-1.21,9.73,9.73,0,0,0,3.27-3.14,13.11,13.11,0,0,0,1.75-4.45,25.26,25.26,0,0,0,.52-5.17V48.68h8.29V70.59a31.58,31.58,0,0,1-1.06,8.29,19.06,19.06,0,0,1-3.33,6.77,15.9,15.9,0,0,1-5.84,4.6,19.76,19.76,0,0,1-8.53,1.69,19.56,19.56,0,0,1-8.75-1.78A16.23,16.23,0,0,1,219,85.44a18.61,18.61,0,0,1-3.24-6.81,31.86,31.86,0,0,1-1-8V48.68h8.35V70.59a26.28,26.28,0,0,0,.51,5.23,13,13,0,0,0,1.76,4.44,9.07,9.07,0,0,0,8.13,4.3" transform="translate(45.33 43.37)"/><polygon class="cls-3" points="315.01 107.48 315.01 135.01 306.66 135.01 306.66 92.05 313.14 92.05 335.52 120.25 335.52 92.11 343.87 92.11 343.87 135.01 337.1 135.01 315.01 107.48"/><path class="cls-3" d="M342.72,80.57a9.77,9.77,0,0,1-4.09,8.23,14,14,0,0,1-4.41,2.12,19.39,19.39,0,0,1-5.36.72H308.11v-43h23a8.36,8.36,0,0,1,4,1,10,10,0,0,1,3.09,2.51,11.13,11.13,0,0,1,2,3.5,11.69,11.69,0,0,1-.87,9.88,9.7,9.7,0,0,1-4.6,4.08,10.89,10.89,0,0,1,5.84,3.89,11.34,11.34,0,0,1,2.15,7.06M316.46,55.82V66.65h11.13a5,5,0,0,0,3.6-1.45,5.36,5.36,0,0,0,1.49-4,5.53,5.53,0,0,0-1.37-3.93A4.44,4.44,0,0,0,328,55.82ZM334.31,79a6.08,6.08,0,0,0-.4-2.2,6.41,6.41,0,0,0-1.05-1.85,4.86,4.86,0,0,0-1.58-1.24,4.41,4.41,0,0,0-2-.46H316.46V84.56h12.4a5.5,5.5,0,0,0,2.15-.42A5.24,5.24,0,0,0,332.74,83a5.75,5.75,0,0,0,1.15-1.78,5.68,5.68,0,0,0,.42-2.18" transform="translate(45.33 43.37)"/><rect class="cls-3" x="395.18" y="92.05" width="8.36" height="42.96"/><polygon class="cls-3" points="413.09 135.01 413.09 92.05 421.44 92.05 421.44 127.69 443.35 127.69 443.35 135.01 413.09 135.01"/><polygon class="cls-3" points="449.04 135.01 449.04 92.05 457.39 92.05 457.39 127.69 479.3 127.69 479.3 135.01 449.04 135.01"/><rect class="cls-3" x="484.98" y="92.05" width="8.35" height="42.96"/><polygon class="cls-3" points="511.24 107.48 511.24 135.01 502.89 135.01 502.89 92.05 509.36 92.05 531.76 120.25 531.76 92.11 540.12 92.11 540.12 135.01 533.34 135.01 511.24 107.48"/><path class="cls-3" d="M534.16,86.8a16.38,16.38,0,0,1-12,5.14,18.91,18.91,0,0,1-8-1.69,20.2,20.2,0,0,1-6.48-4.66,22.35,22.35,0,0,1-4.36-7,23.18,23.18,0,0,1-1.6-8.68,21.79,21.79,0,0,1,6-15.16,21.08,21.08,0,0,1,6.63-4.66,21.61,21.61,0,0,1,18.66.82,16.39,16.39,0,0,1,6.51,6.83l-6.24,4.61a11.51,11.51,0,0,0-4.57-4.91,12.61,12.61,0,0,0-6.38-1.69,10.88,10.88,0,0,0-5,1.15,11.7,11.7,0,0,0-3.86,3.14,14.93,14.93,0,0,0-2.48,4.61,16.87,16.87,0,0,0-.89,5.5,16.18,16.18,0,0,0,1,5.66,14.19,14.19,0,0,0,2.66,4.56,12.36,12.36,0,0,0,4,3.06,11.43,11.43,0,0,0,5,1.12q6.23,0,11.24-5.87v-3h-8.65V69.55h15.56V91.64h-6.91Z" transform="translate(45.33 43.37)"/><path class="cls-3" d="M172.24,117.21a6.82,6.82,0,0,0-3.84,1.22,6.18,6.18,0,0,0-2.3,3.16V132h-2.17V115.29h2v4a7.58,7.58,0,0,1,2.49-3,5.88,5.88,0,0,1,3.35-1.08,2.26,2.26,0,0,1,.42,0Z" transform="translate(45.33 43.37)"/><path class="cls-3" d="M183.11,132.27a8.11,8.11,0,0,1-3.34-.69,8.27,8.27,0,0,1-2.63-1.88,8.84,8.84,0,0,1-2.37-6.13,8.7,8.7,0,0,1,.62-3.31,8.6,8.6,0,0,1,1.73-2.71,8.3,8.3,0,0,1,9.29-1.85,7.81,7.81,0,0,1,2.62,1.86,9.16,9.16,0,0,1,1.69,2.72,8.9,8.9,0,0,1,.6,3.26v.51a1.48,1.48,0,0,1,0,.35H177a7,7,0,0,0,.62,2.48,6.72,6.72,0,0,0,1.36,2,5.87,5.87,0,0,0,1.9,1.29,5.67,5.67,0,0,0,2.28.46,5.83,5.83,0,0,0,1.6-.22,6.66,6.66,0,0,0,1.47-.6,5.64,5.64,0,0,0,1.22-.95,4,4,0,0,0,.83-1.23l1.88.52a5.44,5.44,0,0,1-1.08,1.67,7.5,7.5,0,0,1-1.63,1.31,7.73,7.73,0,0,1-2,.86,8.69,8.69,0,0,1-2.34.31m6.14-9.53a6.79,6.79,0,0,0-2-4.34,6,6,0,0,0-1.89-1.25,6.08,6.08,0,0,0-4.59,0,5.61,5.61,0,0,0-1.9,1.25,6,6,0,0,0-1.31,1.91,7.17,7.17,0,0,0-.59,2.43Z" transform="translate(45.33 43.37)"/><path class="cls-3" d="M203.12,132.27a7.25,7.25,0,0,1-3.19-.72,8.1,8.1,0,0,1-2.53-1.9,8.6,8.6,0,0,1-1.65-2.73,9.19,9.19,0,0,1-.59-3.26,9.76,9.76,0,0,1,.58-3.33,8.86,8.86,0,0,1,1.58-2.77,7.36,7.36,0,0,1,2.4-1.86,6.76,6.76,0,0,1,3.05-.69,6.48,6.48,0,0,1,3.74,1.1,8.24,8.24,0,0,1,2.56,2.67V108.61h2.17v20.53c0,.59.25.89.77.89V132a4.54,4.54,0,0,1-.77.09,2,2,0,0,1-1.34-.49,1.51,1.51,0,0,1-.58-1.2v-1.63a7.32,7.32,0,0,1-2.68,2.59,7,7,0,0,1-3.52,1m.48-1.92a5,5,0,0,0,1.71-.32,6.83,6.83,0,0,0,1.72-.88,6,6,0,0,0,1.35-1.31,3.52,3.52,0,0,0,.69-1.62v-5.14a6,6,0,0,0-.93-1.62,7.32,7.32,0,0,0-1.4-1.32,6.27,6.27,0,0,0-1.67-.9,5.29,5.29,0,0,0-1.76-.32,5,5,0,0,0-2.43.58A6.11,6.11,0,0,0,199,119a7,7,0,0,0-1.2,2.15,7.88,7.88,0,0,0-.41,2.49,6.89,6.89,0,0,0,.48,2.56,6.69,6.69,0,0,0,1.31,2.13,6.21,6.21,0,0,0,2,1.46,5.59,5.59,0,0,0,2.44.54" transform="translate(45.33 43.37)"/><path class="cls-3" d="M234.35,132.27a7.28,7.28,0,0,1-3.19-.72,8,8,0,0,1-2.53-1.9,9,9,0,0,1-2.24-6,9.75,9.75,0,0,1,.57-3.33,9.08,9.08,0,0,1,1.59-2.77,7.26,7.26,0,0,1,2.4-1.86A6.76,6.76,0,0,1,234,115a6.46,6.46,0,0,1,3.74,1.1,8.1,8.1,0,0,1,2.55,2.67V108.61h2.19v20.53c0,.59.25.89.76.89V132a4.34,4.34,0,0,1-.76.09,2,2,0,0,1-1.35-.49,1.53,1.53,0,0,1-.57-1.2v-1.63a7.27,7.27,0,0,1-2.69,2.59,7,7,0,0,1-3.52,1m.48-1.92a5,5,0,0,0,1.71-.32,6.45,6.45,0,0,0,1.71-.88,5.66,5.66,0,0,0,1.36-1.31,3.5,3.5,0,0,0,.68-1.62v-5.14a5.72,5.72,0,0,0-.92-1.62,7.57,7.57,0,0,0-1.39-1.32,6.33,6.33,0,0,0-1.68-.9,5.28,5.28,0,0,0-1.75-.32,5,5,0,0,0-2.43.58,6,6,0,0,0-1.87,1.52,6.58,6.58,0,0,0-1.2,2.15,7.89,7.89,0,0,0-.42,2.49,7.1,7.1,0,0,0,.48,2.56,6.69,6.69,0,0,0,1.31,2.13,6.32,6.32,0,0,0,2,1.46,5.59,5.59,0,0,0,2.44.54" transform="translate(45.33 43.37)"/><path class="cls-3" d="M256.19,132.27a8.11,8.11,0,0,1-3.34-.69,8.47,8.47,0,0,1-2.65-1.88,9.21,9.21,0,0,1-1.74-2.77,9,9,0,0,1-.62-3.36,8.65,8.65,0,0,1,2.35-6,8.32,8.32,0,0,1,9.3-1.85,7.77,7.77,0,0,1,2.61,1.86,8.78,8.78,0,0,1,2.31,6v.51a1.22,1.22,0,0,1,0,.35H250.11a7,7,0,0,0,.63,2.48,6.72,6.72,0,0,0,1.36,2,5.87,5.87,0,0,0,1.9,1.29,5.67,5.67,0,0,0,2.28.46,5.88,5.88,0,0,0,1.6-.22,6.66,6.66,0,0,0,1.47-.6,6.53,6.53,0,0,0,1.23-.95,4.14,4.14,0,0,0,.82-1.23l1.88.52a5.63,5.63,0,0,1-1.08,1.67,8.23,8.23,0,0,1-1.62,1.31,7.86,7.86,0,0,1-2.06.86,8.56,8.56,0,0,1-2.33.31m6.14-9.53a6.8,6.8,0,0,0-.63-2.44,6.41,6.41,0,0,0-1.35-1.9,5.73,5.73,0,0,0-1.88-1.25,5.83,5.83,0,0,0-2.28-.45,6,6,0,0,0-4.21,1.7,6.18,6.18,0,0,0-1.31,1.91,6.94,6.94,0,0,0-.59,2.43Z" transform="translate(45.33 43.37)"/><path class="cls-3" d="M283.29,132.27a6,6,0,0,1-2.18-.4,5.49,5.49,0,0,1-1.76-1.11,4.88,4.88,0,0,1-1.17-1.64,5,5,0,0,1-.41-2,4.15,4.15,0,0,1,.51-2,4.82,4.82,0,0,1,1.43-1.6,7.45,7.45,0,0,1,2.2-1,10.07,10.07,0,0,1,2.82-.37,15.38,15.38,0,0,1,2.6.22,12.66,12.66,0,0,1,2.33.64v-1.5a4.85,4.85,0,0,0-1.25-3.5,4.53,4.53,0,0,0-3.45-1.29,7.34,7.34,0,0,0-2.62.51,12.55,12.55,0,0,0-2.72,1.47l-.77-1.44a11.23,11.23,0,0,1,6.27-2.17,6.71,6.71,0,0,1,4.92,1.75,6.5,6.5,0,0,1,1.78,4.86v7.52c0,.59.27.89.82.89V132a5.73,5.73,0,0,1-.84.09,1.85,1.85,0,0,1-1.29-.41,1.53,1.53,0,0,1-.5-1.15l-.07-1.32a7.38,7.38,0,0,1-2.9,2.31,8.85,8.85,0,0,1-3.75.8m.51-1.67a7.44,7.44,0,0,0,3.12-.63,5,5,0,0,0,2.16-1.7,1.93,1.93,0,0,0,.43-.62,1.74,1.74,0,0,0,.15-.62v-2.72a14,14,0,0,0-2.26-.65,13.42,13.42,0,0,0-2.38-.22,6.61,6.61,0,0,0-3.74,1,2.91,2.91,0,0,0-1.44,2.53,3.51,3.51,0,0,0,.3,1.44,3.6,3.6,0,0,0,.84,1.16,3.85,3.85,0,0,0,1.26.79,4.27,4.27,0,0,0,1.56.28" transform="translate(45.33 43.37)"/><path class="cls-3" d="M297,123.57a9.28,9.28,0,0,1,.61-3.33,8.23,8.23,0,0,1,1.7-2.72,7.8,7.8,0,0,1,2.64-1.84,8.29,8.29,0,0,1,3.38-.67,7.79,7.79,0,0,1,4.14,1.07A6.84,6.84,0,0,1,312.1,119l-2.12.67a5,5,0,0,0-2-2,5.56,5.56,0,0,0-2.8-.72,5.48,5.48,0,0,0-2.38.52,5.88,5.88,0,0,0-1.91,1.39,6.4,6.4,0,0,0-1.29,2.08,7.66,7.66,0,0,0-.45,2.66,7.28,7.28,0,0,0,.47,2.65,6.84,6.84,0,0,0,1.31,2.17,6.18,6.18,0,0,0,1.94,1.43,5.36,5.36,0,0,0,2.35.53,6.13,6.13,0,0,0,3-.85,4.82,4.82,0,0,0,1.16-.91,3,3,0,0,0,.66-1.08l2.15.63a5.67,5.67,0,0,1-1,1.65,7,7,0,0,1-1.59,1.31,7.39,7.39,0,0,1-2,.86,8.33,8.33,0,0,1-2.29.31,8.16,8.16,0,0,1-6-2.57,8.66,8.66,0,0,1-1.74-2.77,9,9,0,0,1-.62-3.36" transform="translate(45.33 43.37)"/><path class="cls-3" d="M325.27,131.15l-.56.25c-.24.11-.53.22-.85.33a10.5,10.5,0,0,1-1.08.28,6.69,6.69,0,0,1-1.28.13,4.64,4.64,0,0,1-1.35-.19,3.29,3.29,0,0,1-1.11-.59,3,3,0,0,1-.78-1A3.27,3.27,0,0,1,318,129V117h-2.3v-1.73H318v-5.62h2.17v5.62H324V117h-3.85v11.31a1.71,1.71,0,0,0,.66,1.37,2.23,2.23,0,0,0,1.37.42,3.89,3.89,0,0,0,1.61-.3,7.2,7.2,0,0,0,.9-.43Z" transform="translate(45.33 43.37)"/><path class="cls-3" d="M329.58,108.61h2.18v3.2h-2.18Zm0,6.68h2.18V132h-2.18Z" transform="translate(45.33 43.37)"/><polygon class="cls-3" points="388.47 175.32 381.69 158.67 383.93 158.67 389.64 173.3 395.4 158.67 397.51 158.67 390.73 175.32 388.47 175.32"/><path class="cls-3" d="M356.79,108.61H359v3.2h-2.17Zm0,6.68H359V132h-2.17Z" transform="translate(45.33 43.37)"/><path class="cls-3" d="M372.19,132.27a7.31,7.31,0,0,1-3.19-.72,8.22,8.22,0,0,1-2.53-1.9,8.76,8.76,0,0,1-1.64-2.73,9,9,0,0,1-.59-3.26,9.75,9.75,0,0,1,.57-3.33,8.88,8.88,0,0,1,1.59-2.77,7.22,7.22,0,0,1,2.39-1.86,6.79,6.79,0,0,1,3-.69,6.46,6.46,0,0,1,3.74,1.1,8.37,8.37,0,0,1,2.57,2.67V108.61h2.16v20.53c0,.59.26.89.78.89V132a4.63,4.63,0,0,1-.78.09,2,2,0,0,1-1.33-.49,1.51,1.51,0,0,1-.58-1.2v-1.63a7.32,7.32,0,0,1-2.68,2.59,7.1,7.1,0,0,1-3.53,1m.49-1.92a5,5,0,0,0,1.71-.32,6.94,6.94,0,0,0,1.71-.88,6,6,0,0,0,1.36-1.31,3.87,3.87,0,0,0,.69-1.62v-5.14a5.79,5.79,0,0,0-.94-1.62,7.27,7.27,0,0,0-1.39-1.32,6.43,6.43,0,0,0-1.67-.9,5.32,5.32,0,0,0-1.75-.32,5.06,5.06,0,0,0-2.44.58,6.11,6.11,0,0,0-1.87,1.52,6.58,6.58,0,0,0-1.2,2.15,7.61,7.61,0,0,0-.42,2.49,6.7,6.7,0,0,0,.49,2.56,6.51,6.51,0,0,0,1.31,2.13,6.06,6.06,0,0,0,2,1.46,5.63,5.63,0,0,0,2.45.54" transform="translate(45.33 43.37)"/><path class="cls-3" d="M391,132.27a6,6,0,0,1-2.19-.4,5.77,5.77,0,0,1-1.77-1.11,5,5,0,0,1-1.16-1.64,5.12,5.12,0,0,1-.42-2,4.16,4.16,0,0,1,.52-2,4.75,4.75,0,0,1,1.44-1.6,7.11,7.11,0,0,1,2.2-1,10,10,0,0,1,2.82-.37,15.15,15.15,0,0,1,2.58.22,12.78,12.78,0,0,1,2.34.64v-1.5a4.85,4.85,0,0,0-1.25-3.5,4.54,4.54,0,0,0-3.46-1.29,7.33,7.33,0,0,0-2.61.51,12.55,12.55,0,0,0-2.72,1.47l-.77-1.44a11.23,11.23,0,0,1,6.27-2.17,6.74,6.74,0,0,1,4.92,1.75,6.47,6.47,0,0,1,1.79,4.86v7.52c0,.59.27.89.8.89V132a5.62,5.62,0,0,1-.83.09,1.86,1.86,0,0,1-1.3-.41,1.59,1.59,0,0,1-.49-1.15l-.07-1.32a7.49,7.49,0,0,1-2.89,2.31,8.89,8.89,0,0,1-3.75.8m.5-1.67a7.52,7.52,0,0,0,3.13-.63,5.1,5.1,0,0,0,2.15-1.7,2.1,2.1,0,0,0,.43-.62,1.55,1.55,0,0,0,.15-.62v-2.72a14.3,14.3,0,0,0-2.26-.65,13.42,13.42,0,0,0-2.38-.22,6.63,6.63,0,0,0-3.74,1,2.92,2.92,0,0,0-1.43,2.53,3.51,3.51,0,0,0,.3,1.44,3.43,3.43,0,0,0,.83,1.16,4,4,0,0,0,1.26.79,4.27,4.27,0,0,0,1.56.28" transform="translate(45.33 43.37)"/><path class="cls-3" d="M412.7,132.27a7.25,7.25,0,0,1-3.19-.72,8,8,0,0,1-2.53-1.9,8.78,8.78,0,0,1-1.65-2.73,9.19,9.19,0,0,1-.59-3.26,9.75,9.75,0,0,1,.57-3.33,9.27,9.27,0,0,1,1.58-2.77,7.47,7.47,0,0,1,2.4-1.86,6.79,6.79,0,0,1,3-.69,6.51,6.51,0,0,1,3.75,1.1,8.34,8.34,0,0,1,2.56,2.67V108.61h2.17v20.53c0,.59.26.89.77.89V132a4.43,4.43,0,0,1-.77.09,2,2,0,0,1-1.34-.49,1.54,1.54,0,0,1-.58-1.2v-1.63a7.27,7.27,0,0,1-2.69,2.59,7,7,0,0,1-3.51,1m.48-1.92a5,5,0,0,0,1.71-.32,6.76,6.76,0,0,0,1.71-.88,6,6,0,0,0,1.36-1.31,3.63,3.63,0,0,0,.69-1.62v-5.14a6.29,6.29,0,0,0-.93-1.62,7.57,7.57,0,0,0-1.39-1.32,6.83,6.83,0,0,0-1.68-.9,5.29,5.29,0,0,0-1.76-.32,5,5,0,0,0-2.43.58,6.11,6.11,0,0,0-1.87,1.52,7,7,0,0,0-1.2,2.15,7.6,7.6,0,0,0-.41,2.49,6.89,6.89,0,0,0,.48,2.56,7,7,0,0,0,1.3,2.13,6.44,6.44,0,0,0,2,1.46,5.63,5.63,0,0,0,2.45.54" transform="translate(45.33 43.37)"/><path class="cls-3" d="M436,123.57a9.06,9.06,0,0,1,.6-3.33,8.25,8.25,0,0,1,1.71-2.72,7.52,7.52,0,0,1,2.64-1.84,8.31,8.31,0,0,1,3.39-.67,7.68,7.68,0,0,1,4.11,1.07,6.8,6.8,0,0,1,2.66,2.89l-2.12.67a5,5,0,0,0-2-2,5.76,5.76,0,0,0-5.18-.2,6,6,0,0,0-1.91,1.39,6.38,6.38,0,0,0-1.28,2.08,7.43,7.43,0,0,0-.46,2.66,7.29,7.29,0,0,0,.48,2.65,6.49,6.49,0,0,0,1.31,2.17,6.1,6.1,0,0,0,1.92,1.43,5.51,5.51,0,0,0,2.37.53,5.68,5.68,0,0,0,1.57-.23,5.52,5.52,0,0,0,1.45-.62,4.41,4.41,0,0,0,1.15-.91,3.16,3.16,0,0,0,.68-1.08l2.14.63a5.67,5.67,0,0,1-1,1.65,6.62,6.62,0,0,1-1.59,1.31,7.39,7.39,0,0,1-2,.86,8.25,8.25,0,0,1-8.29-2.26,8.66,8.66,0,0,1-1.74-2.77,8.85,8.85,0,0,1-.62-3.36" transform="translate(45.33 43.37)"/><path class="cls-3" d="M463.17,132.27a8,8,0,0,1-3.32-.69,8.27,8.27,0,0,1-2.61-1.87,8.73,8.73,0,0,1-1.71-2.75,9.11,9.11,0,0,1-.6-3.3,8.95,8.95,0,0,1,2.34-6.07,8.46,8.46,0,0,1,2.61-1.88,8.13,8.13,0,0,1,6.6,0,8.16,8.16,0,0,1,2.62,1.88,9.13,9.13,0,0,1,1.75,9.37,8.73,8.73,0,0,1-1.71,2.75,8,8,0,0,1-6,2.56m-6-8.57a6.78,6.78,0,0,0,.49,2.61,6.88,6.88,0,0,0,1.28,2.1,6,6,0,0,0,1.93,1.43,5.47,5.47,0,0,0,2.34.51,5.36,5.36,0,0,0,2.35-.53,6.34,6.34,0,0,0,2-1.43,7.16,7.16,0,0,0,1.3-2.13,7.17,7.17,0,0,0-1.3-7.36,6.25,6.25,0,0,0-2-1.45,5.36,5.36,0,0,0-2.35-.53,5.2,5.2,0,0,0-2.32.53,6.2,6.2,0,0,0-1.93,1.46,6.7,6.7,0,0,0-1.3,2.16,6.91,6.91,0,0,0-.49,2.63" transform="translate(45.33 43.37)"/><path class="cls-3" d="M501.48,132H499.3v-9.31a7.88,7.88,0,0,0-.93-4.28,3.11,3.11,0,0,0-2.75-1.37,4.39,4.39,0,0,0-1.8.36,5.1,5.1,0,0,0-1.57,1,7.15,7.15,0,0,0-2.09,3.45V132H488v-9.31a8,8,0,0,0-.9-4.31,3.08,3.08,0,0,0-2.74-1.34A4.92,4.92,0,0,0,481,118.3a7.28,7.28,0,0,0-2.11,3.46V132H476.7V115.29h2v3.78a7.88,7.88,0,0,1,2.68-3A6.6,6.6,0,0,1,485,115a4.74,4.74,0,0,1,3.38,1.18,5.14,5.14,0,0,1,1.54,3.1q2.34-4.28,6.43-4.28a5.1,5.1,0,0,1,2.38.51,4.05,4.05,0,0,1,1.57,1.45,7.17,7.17,0,0,1,.87,2.27,14.92,14.92,0,0,1,.27,3Z" transform="translate(45.33 43.37)"/><path class="cls-3" d="M514.86,132.27a8.1,8.1,0,0,1-3.33-.69,8.2,8.2,0,0,1-2.64-1.88,8.86,8.86,0,0,1-1.75-2.77,9,9,0,0,1-.62-3.36,8.9,8.9,0,0,1,.62-3.31,8.78,8.78,0,0,1,1.73-2.71,8.12,8.12,0,0,1,2.64-1.85,8.38,8.38,0,0,1,6.66,0,7.54,7.54,0,0,1,2.6,1.86,8.44,8.44,0,0,1,1.7,2.72,8.7,8.7,0,0,1,.61,3.26v.51a1.33,1.33,0,0,1,0,.35H508.79a6.77,6.77,0,0,0,.63,2.48,6.89,6.89,0,0,0,1.35,2,6,6,0,0,0,1.91,1.29,5.6,5.6,0,0,0,2.28.46,5.83,5.83,0,0,0,1.6-.22,6.47,6.47,0,0,0,1.47-.6,5.89,5.89,0,0,0,1.22-.95,4,4,0,0,0,.82-1.23l1.89.52a5.44,5.44,0,0,1-1.08,1.67,7.7,7.7,0,0,1-3.69,2.17,8.51,8.51,0,0,1-2.33.31m6.15-9.53a6.8,6.8,0,0,0-.63-2.44,6.6,6.6,0,0,0-1.35-1.9,5.63,5.63,0,0,0-1.88-1.25,6,6,0,0,0-6.49,1.25,6.35,6.35,0,0,0-1.31,1.91,7.17,7.17,0,0,0-.59,2.43Z" transform="translate(45.33 43.37)"/><path class="cls-3" d="M536.35,117.21a6.82,6.82,0,0,0-3.84,1.22,6.18,6.18,0,0,0-2.3,3.16V132H528V115.29h2.05v4a7.48,7.48,0,0,1,2.48-3,5.92,5.92,0,0,1,3.37-1.08,2.37,2.37,0,0,1,.41,0Z" transform="translate(45.33 43.37)"/><path class="cls-3" d="M538.87,123.57a9.07,9.07,0,0,1,.61-3.33,8.25,8.25,0,0,1,1.71-2.72,7.7,7.7,0,0,1,2.64-1.84,8.34,8.34,0,0,1,3.39-.67,7.71,7.71,0,0,1,4.12,1.07A6.78,6.78,0,0,1,554,119l-2.11.67a5.09,5.09,0,0,0-2-2,5.59,5.59,0,0,0-2.8-.72,5.45,5.45,0,0,0-2.38.52,5.77,5.77,0,0,0-1.91,1.39,6.24,6.24,0,0,0-1.29,2.08,7.66,7.66,0,0,0-.45,2.66,7.28,7.28,0,0,0,.47,2.65,6.66,6.66,0,0,0,1.31,2.17,6.07,6.07,0,0,0,1.94,1.43,5.35,5.35,0,0,0,2.34.53,5.82,5.82,0,0,0,1.59-.23,5.52,5.52,0,0,0,1.45-.62,4.77,4.77,0,0,0,1.15-.91,3,3,0,0,0,.67-1.08l2.14.63a5.64,5.64,0,0,1-1,1.65,7.26,7.26,0,0,1-1.59,1.31,7.39,7.39,0,0,1-2,.86,8.56,8.56,0,0,1-5.65-.38,8.24,8.24,0,0,1-2.65-1.88,9,9,0,0,1-2.37-6.13" transform="translate(45.33 43.37)"/><path class="cls-3" d="M559.17,108.61h2.18v3.2h-2.18Zm0,6.68h2.18V132h-2.18Z" transform="translate(45.33 43.37)"/><path class="cls-3" d="M571.92,132.27a6,6,0,0,1-2.18-.4,5.49,5.49,0,0,1-1.76-1.11,5,5,0,0,1-1.17-1.64,5.11,5.11,0,0,1-.41-2,4.15,4.15,0,0,1,.51-2,4.86,4.86,0,0,1,1.44-1.6,7.22,7.22,0,0,1,2.2-1,10,10,0,0,1,2.82-.37,15.35,15.35,0,0,1,2.59.22,12.44,12.44,0,0,1,2.33.64v-1.5a4.81,4.81,0,0,0-1.25-3.5,4.55,4.55,0,0,0-3.45-1.29,7.34,7.34,0,0,0-2.62.51,12.33,12.33,0,0,0-2.72,1.47l-.77-1.44a11.23,11.23,0,0,1,6.27-2.17,6.74,6.74,0,0,1,4.92,1.75,6.51,6.51,0,0,1,1.79,4.86v7.52c0,.59.26.89.8.89V132a5.49,5.49,0,0,1-.83.09,1.88,1.88,0,0,1-1.3-.41,1.55,1.55,0,0,1-.48-1.15l-.07-1.32a7.45,7.45,0,0,1-2.9,2.31,8.93,8.93,0,0,1-3.76.8m.52-1.67a7.36,7.36,0,0,0,3.11-.63,5.14,5.14,0,0,0,2.18-1.7,2.27,2.27,0,0,0,.42-.62,1.71,1.71,0,0,0,.14-.62v-2.72a14.3,14.3,0,0,0-2.26-.65,13.33,13.33,0,0,0-2.38-.22,6.57,6.57,0,0,0-3.73,1,2.91,2.91,0,0,0-1.44,2.53,3.51,3.51,0,0,0,.3,1.44,3.43,3.43,0,0,0,.83,1.16,3.85,3.85,0,0,0,1.26.79,4.37,4.37,0,0,0,1.57.28" transform="translate(45.33 43.37)"/><path class="cls-3" d="M586.86,108.61H589v19.57a2,2,0,0,0,.52,1.45,1.85,1.85,0,0,0,1.44.53,4.65,4.65,0,0,0,.82-.1,6.25,6.25,0,0,0,.9-.25l.38,1.76a7.4,7.4,0,0,1-1.48.41,9.48,9.48,0,0,1-1.52.16,3.2,3.2,0,0,1-2.37-.85,3.16,3.16,0,0,1-.86-2.38Z" transform="translate(45.33 43.37)"/><g class="cls-4"><g class="cls-5"><g class="cls-6"><g class="cls-5"><path class="cls-7" d="M175.78,160.55c0,7.93-39.35,14.34-87.88,14.34S0,168.48,0,160.55s39.36-14.34,87.9-14.34,87.88,6.42,87.88,14.34" transform="translate(45.33 43.37)"/></g></g><g class="cls-8"><g class="cls-9"><path class="cls-10" d="M172.87,160.55c0,7.65-38.05,13.84-85,13.84s-85-6.19-85-13.84,38-13.83,85-13.83,85,6.19,85,13.83" transform="translate(45.33 43.37)"/></g></g><g class="cls-11"><g class="cls-12"><path class="cls-13" d="M170,160.55c0,7.37-36.74,13.34-82.06,13.34s-82.07-6-82.07-13.34,36.74-13.32,82.07-13.32,82.06,6,82.06,13.32" transform="translate(45.33 43.37)"/></g></g><g class="cls-14"><g class="cls-15"><path class="cls-16" d="M167.05,160.55c0,7.09-35.44,12.83-79.15,12.83S8.74,167.64,8.74,160.55s35.44-12.81,79.16-12.81,79.15,5.73,79.15,12.81" transform="translate(45.33 43.37)"/></g></g><g class="cls-17"><g class="cls-18"><path class="cls-19" d="M164.14,160.55c0,6.81-34.14,12.32-76.24,12.32s-76.25-5.51-76.25-12.32,34.14-12.3,76.25-12.3,76.24,5.5,76.24,12.3" transform="translate(45.33 43.37)"/></g></g><g class="cls-20"><g class="cls-21"><path class="cls-22" d="M161.22,160.55c0,6.53-32.83,11.81-73.32,11.81s-73.34-5.28-73.34-11.81,32.84-11.8,73.34-11.8,73.32,5.29,73.32,11.8" transform="translate(45.33 43.37)"/></g></g><g class="cls-23"><g class="cls-24"><path class="cls-25" d="M158.31,160.55c0,6.24-31.53,11.31-70.41,11.31s-70.42-5.07-70.42-11.31S49,149.26,87.9,149.26s70.41,5.06,70.41,11.29" transform="translate(45.33 43.37)"/></g></g><g class="cls-26"><g class="cls-27"><path class="cls-28" d="M155.4,160.55c0,6-30.22,10.79-67.5,10.79s-67.51-4.82-67.51-10.79,30.23-10.78,67.51-10.78,67.5,4.82,67.5,10.78" transform="translate(45.33 43.37)"/></g></g><g class="cls-29"><g class="cls-30"><path class="cls-31" d="M152.48,160.55c0,5.68-28.91,10.28-64.58,10.28s-64.6-4.6-64.6-10.28,28.93-10.28,64.6-10.28,64.58,4.61,64.58,10.28" transform="translate(45.33 43.37)"/></g></g><g class="cls-32"><g class="cls-33"><path class="cls-34" d="M149.57,160.55c0,5.41-27.61,9.78-61.67,9.78S26.22,166,26.22,160.55s27.61-9.77,61.68-9.77,61.67,4.37,61.67,9.77" transform="translate(45.33 43.37)"/></g></g><g class="cls-35"><g class="cls-36"><path class="cls-37" d="M146.65,160.55c0,5.13-26.3,9.28-58.75,9.28s-58.77-4.15-58.77-9.28,26.32-9.26,58.77-9.26,58.75,4.15,58.75,9.26" transform="translate(45.33 43.37)"/></g></g><g class="cls-38"><g class="cls-39"><path class="cls-40" d="M143.75,160.55c0,4.84-25,8.77-55.85,8.77s-55.85-3.93-55.85-8.77,25-8.76,55.85-8.76,55.85,3.93,55.85,8.76" transform="translate(45.33 43.37)"/></g></g><g class="cls-41"><g class="cls-42"><path class="cls-43" d="M140.83,160.55c0,4.57-23.7,8.26-52.93,8.26S35,165.12,35,160.55s23.71-8.25,53-8.25,52.93,3.69,52.93,8.25" transform="translate(45.33 43.37)"/></g></g><g class="cls-44"><g class="cls-45"><path class="cls-46" d="M137.92,160.55c0,4.29-22.4,7.75-50,7.75s-50-3.46-50-7.75,22.4-7.75,50-7.75,50,3.48,50,7.75" transform="translate(45.33 43.37)"/></g></g><g class="cls-47"><g class="cls-48"><path class="cls-49" d="M135,160.55c0,4-21.09,7.24-47.1,7.24s-47.11-3.24-47.11-7.24,21.09-7.23,47.11-7.23,47.1,3.24,47.1,7.23" transform="translate(45.33 43.37)"/></g></g><g class="cls-50"><g class="cls-51"><path class="cls-52" d="M132.09,160.55c0,3.72-19.79,6.74-44.19,6.74s-44.2-3-44.2-6.74,19.79-6.72,44.2-6.72,44.19,3,44.19,6.72" transform="translate(45.33 43.37)"/></g></g><g class="cls-53"><g class="cls-54"><path class="cls-55" d="M129.18,160.55c0,3.45-18.49,6.23-41.28,6.23S46.61,164,46.61,160.55s18.48-6.22,41.29-6.22,41.28,2.79,41.28,6.22" transform="translate(45.33 43.37)"/></g></g><g class="cls-56"><g class="cls-57"><path class="cls-58" d="M126.26,160.55c0,3.16-17.18,5.72-38.36,5.72s-38.38-2.56-38.38-5.72,17.18-5.71,38.38-5.71,38.36,2.56,38.36,5.71" transform="translate(45.33 43.37)"/></g></g><g class="cls-59"><g class="cls-60"><path class="cls-61" d="M123.34,160.55c0,2.88-15.87,5.21-35.44,5.21s-35.46-2.33-35.46-5.21,15.87-5.2,35.46-5.2,35.44,2.33,35.44,5.2" transform="translate(45.33 43.37)"/></g></g><g class="cls-62"><g class="cls-63"><path class="cls-64" d="M120.45,160.55c0,2.61-14.58,4.71-32.55,4.71s-32.54-2.1-32.54-4.71,14.56-4.7,32.54-4.7,32.55,2.11,32.55,4.7" transform="translate(45.33 43.37)"/></g></g><g class="cls-65"><g class="cls-66"><path class="cls-67" d="M117.53,160.55c0,2.32-13.27,4.2-29.63,4.2s-29.64-1.88-29.64-4.2,13.27-4.19,29.64-4.19,29.63,1.88,29.63,4.19" transform="translate(45.33 43.37)"/></g></g><g class="cls-68"><g class="cls-69"><path class="cls-70" d="M114.61,160.55c0,2-12,3.69-26.71,3.69s-26.72-1.65-26.72-3.69,12-3.69,26.72-3.69,26.71,1.66,26.71,3.69" transform="translate(45.33 43.37)"/></g></g><g class="cls-71"><g class="cls-72"><path class="cls-73" d="M111.7,160.55c0,1.77-10.66,3.18-23.8,3.18s-23.81-1.41-23.81-3.18,10.66-3.17,23.81-3.17,23.8,1.42,23.8,3.17" transform="translate(45.33 43.37)"/></g></g><g class="cls-74"><g class="cls-75"><path class="cls-76" d="M108.79,160.55c0,1.48-9.36,2.68-20.89,2.68S67,162,67,160.55s9.35-2.67,20.89-2.67,20.89,1.2,20.89,2.67" transform="translate(45.33 43.37)"/></g></g><g class="cls-77"><g class="cls-78"><path class="cls-79" d="M105.87,160.55c0,1.2-8.05,2.17-18,2.17s-18-1-18-2.17,8-2.16,18-2.16,18,1,18,2.16" transform="translate(45.33 43.37)"/></g></g><g class="cls-80"><g class="cls-81"><path class="cls-82" d="M103,160.55c0,.92-6.75,1.66-15.06,1.66s-15.07-.74-15.07-1.66,6.74-1.65,15.07-1.65,15.06.74,15.06,1.65" transform="translate(45.33 43.37)"/></g></g><g class="cls-83"><path class="cls-84" d="M100.05,160.55c0,.64-5.45,1.16-12.15,1.16s-12.15-.52-12.15-1.16,5.43-1.14,12.15-1.14,12.15.52,12.15,1.14" transform="translate(45.33 43.37)"/></g></g></g><g class="cls-85"><rect class="cls-86" x="6.63" y="71.97" width="29.33" height="29.32" transform="translate(-9.27 83.12) rotate(-44.49)"/></g><g class="cls-87"><polygon class="cls-88" points="111.77 262.22 0 148.45 113.66 36.78 225.43 150.54 111.77 262.22"/></g><g class="cls-89"><g class="cls-90"><g class="cls-91"><rect class="cls-92" x="9.05" y="8.05" width="153.77" height="144.43" transform="translate(22.59 168.54) rotate(-65.49)"/></g><g class="cls-93"><polygon class="cls-94" points="139.41 61.94 128.66 85.52 105.08 74.78 115.82 51.19 139.41 61.94"/></g></g></g><g class="cls-89"><g class="cls-95"><g class="cls-96"><polygon class="cls-97" points="178.2 72.89 203.67 58.44 218.13 83.92 192.64 98.38 178.2 72.89"/></g><g class="cls-98"><polygon class="cls-99" points="48.04 78.47 186.4 0 275.14 156.49 136.78 234.95 48.04 78.47"/></g></g></g></g></g></g></svg>