<svg xmlns="http://www.w3.org/2000/svg" xmlns:xlink="http://www.w3.org/1999/xlink" viewBox="0 0 222.41 177.21"><defs><style>.cls-1,.cls-97{fill:none;}.cls-2{isolation:isolate;}.cls-3{opacity:0.97;}.cls-4{clip-path:url(#clip-path);}.cls-5{fill:#f7f7f7;}.cls-6{fill:#7f5699;}.cls-58,.cls-7{fill:#e5e5e5;}.cls-8{fill:#514749;}.cls-9{opacity:0.2;}.cls-39,.cls-46,.cls-47,.cls-9{mix-blend-mode:multiply;}.cls-10,.cls-44,.cls-57{fill:#fff;}.cls-10{opacity:0;}.cls-11{fill:#f7f7f8;opacity:0.04;}.cls-12{fill:#efeef1;opacity:0.08;}.cls-13{fill:#e7e6ea;opacity:0.12;}.cls-14{fill:#dfdee3;opacity:0.15;}.cls-15{fill:#d8d6dd;opacity:0.19;}.cls-16{fill:#d0cdd6;opacity:0.23;}.cls-17{fill:#c8c5cf;opacity:0.27;}.cls-18{fill:#c0bdc8;opacity:0.31;}.cls-19{fill:#b8b5c1;opacity:0.35;}.cls-20{fill:#b0acba;opacity:0.38;}.cls-21{fill:#a8a4b3;opacity:0.42;}.cls-22{fill:#a09cac;opacity:0.46;}.cls-23{fill:#9994a6;opacity:0.5;}.cls-24{fill:#918b9f;opacity:0.54;}.cls-25{fill:#898398;opacity:0.58;}.cls-26{fill:#817b91;opacity:0.62;}.cls-27{fill:#79728a;opacity:0.65;}.cls-28{fill:#716a83;opacity:0.69;}.cls-29{fill:#69627c;opacity:0.73;}.cls-30{fill:#615a75;opacity:0.77;}.cls-31{fill:#59516e;opacity:0.81;}.cls-32{fill:#524968;opacity:0.85;}.cls-33{fill:#4a4161;opacity:0.88;}.cls-34{fill:#42395a;opacity:0.92;}.cls-35{fill:#3a3053;opacity:0.96;}.cls-36{fill:#32284c;}.cls-37{fill:url(#linear-gradient);}.cls-38{fill:url(#linear-gradient-2);}.cls-40{fill:url(#linear-gradient-3);}.cls-41{fill:url(#linear-gradient-4);}.cls-42{fill:url(#linear-gradient-5);}.cls-43{fill:url(#linear-gradient-6);}.cls-44{opacity:0.3;}.cls-45,.cls-62,.cls-67{fill:#423f63;}.cls-45{opacity:0.05;}.cls-46{fill:#ccc;}.cls-47{fill:#999;}.cls-48{fill:#4a456f;}.cls-49{fill:#cc9315;}.cls-50{fill:#edbcc5;}.cls-51{fill:#eaac41;}.cls-52{fill:#ffaf84;}.cls-53{fill:#363451;}.cls-54{fill:#4b456f;}.cls-55{fill:#2fa35c;}.cls-55,.cls-56,.cls-58{fill-rule:evenodd;}.cls-55,.cls-65{opacity:0.8;}.cls-56,.cls-59{fill:#bcbbbb;}.cls-60{fill:#dfdfdf;}.cls-61{fill:#6c3e84;}.cls-62{opacity:0.03;}.cls-63{fill:#a03527;}.cls-64{fill:#59b57d;}.cls-66{fill:#288449;}.cls-68{fill:#bc7d2a;}.cls-69{fill:#b8432e;}.cls-70{fill:#00a0c6;}.cls-71{fill:#048da3;}.cls-72{fill:#56396d;}.cls-73{fill:#6d4826;}.cls-74{fill:#3b524c;}.cls-75{fill:#1a2941;}.cls-76{fill:#70ae93;}.cls-77{fill:#5c9579;}.cls-78{fill:#83bca6;}.cls-79{fill:#e5b6a0;}.cls-80{fill:#de9d81;}.cls-81{fill:#cc605c;}.cls-82{fill:#253d48;}.cls-83{fill:#a1d1c0;}.cls-84{fill:#beeddd;}.cls-85{fill:#efcfaf;}.cls-86{fill:#e0b48c;}.cls-87{fill:#bae588;}.cls-88{fill:#86a35d;}.cls-89{fill:#f3f7f2;}.cls-90{fill:#e3ad29;}.cls-91{fill:#8383a5;}.cls-92{fill:#73b4f9;}.cls-93{fill:url(#Gradient_bez_nazwy_2);}.cls-94{fill:#e0654c;}.cls-95{fill:#fff0e9;}.cls-96{fill:#2c4663;}.cls-97{stroke:#514749;stroke-linecap:round;stroke-linejoin:round;stroke-width:2px;}.cls-98{fill:#636569;}</style><clipPath id="clip-path"><rect class="cls-1" x="31.61" y="61.91" width="136.63" height="66.55"/></clipPath><linearGradient id="linear-gradient" x1="77.99" y1="94.33" x2="70.69" y2="86.9" gradientUnits="userSpaceOnUse"><stop offset="0" stop-color="#c1d121"/><stop offset="0.25" stop-color="#7ab441"/><stop offset="0.4" stop-color="#54a767"/><stop offset="0.58" stop-color="#4da584"/><stop offset="0.72" stop-color="#489dab"/><stop offset="0.87" stop-color="#4f7aab"/><stop offset="1" stop-color="#355999"/></linearGradient><linearGradient id="linear-gradient-2" x1="77.08" y1="95.35" x2="69.78" y2="87.92" xlink:href="#linear-gradient"/><linearGradient id="linear-gradient-3" x1="79.36" y1="79.73" x2="71.18" y2="97.69" gradientUnits="userSpaceOnUse"><stop offset="0" stop-color="#7c1679"/><stop offset="0.18" stop-color="#c20e70"/><stop offset="0.34" stop-color="#d7135b"/><stop offset="0.53" stop-color="#e12735"/><stop offset="0.7" stop-color="#e85117"/><stop offset="0.78" stop-color="#e85517"/><stop offset="0.87" stop-color="#e86116"/><stop offset="0.98" stop-color="#e59c18"/><stop offset="1" stop-color="#e4a919"/></linearGradient><linearGradient id="linear-gradient-4" x1="78.04" y1="79.08" x2="69.85" y2="97.04" xlink:href="#linear-gradient-3"/><linearGradient id="linear-gradient-5" x1="515.2" y1="-660.92" x2="524.5" y2="-670.55" gradientTransform="matrix(0.96, 0.28, -0.28, 0.96, -605.71, 576.55)" gradientUnits="userSpaceOnUse"><stop offset="0" stop-color="#e85117"/><stop offset="0.2" stop-color="#e85517"/><stop offset="0.4" stop-color="#e76115"/><stop offset="0.6" stop-color="#e67613"/><stop offset="0.81" stop-color="#e4930f"/><stop offset="0.96" stop-color="#e3ac0c"/></linearGradient><linearGradient id="linear-gradient-6" x1="515.42" y1="-660.42" x2="524.84" y2="-670.16" xlink:href="#linear-gradient-5"/><linearGradient id="Gradient_bez_nazwy_2" x1="159.83" y1="107.63" x2="153.02" y2="72.26" gradientUnits="userSpaceOnUse"><stop offset="0" stop-color="#141414"/><stop offset="1" stop-color="#3b3b3b"/></linearGradient></defs><title>store</title><g class="cls-2"><g id="Layer_2" data-name="Layer 2"><g id="Capa_1" data-name="Capa 1"><g class="cls-3"><g class="cls-4"><rect class="cls-5" x="31.61" y="61.91" width="136.63" height="66.55"/></g></g><rect class="cls-6" x="125.6" y="61.91" width="42.93" height="66.55"/><path class="cls-7" d="M162.72,83.14H131.41A1.14,1.14,0,0,1,130.3,82v-2.8A1.14,1.14,0,0,1,131.41,78h31.31a1.14,1.14,0,0,1,1.11,1.15V82a1.14,1.14,0,0,1-1.11,1.16"/><path class="cls-7" d="M162.72,91.17H131.41A1.14,1.14,0,0,1,130.3,90v-2.8a1.14,1.14,0,0,1,1.11-1.15h31.31a1.14,1.14,0,0,1,1.11,1.15V90a1.14,1.14,0,0,1-1.11,1.16"/><path class="cls-7" d="M162.72,111.61H131.41a1.14,1.14,0,0,1-1.11-1.15v-2.8a1.14,1.14,0,0,1,1.11-1.16h31.31a1.14,1.14,0,0,1,1.11,1.16v2.8a1.14,1.14,0,0,1-1.11,1.15"/><polyline class="cls-7" points="130.3 109.06 130.3 128.46 163.83 128.46 163.83 109.06"/><path class="cls-8" d="M60.87,106.81a1.17,1.17,0,0,0,.61-.15,1.39,1.39,0,0,0,.4-.4,1.61,1.61,0,0,0,.21-.57,3.49,3.49,0,0,0,.06-.65v-2.79h1V105a4.44,4.44,0,0,1-.13,1,2.37,2.37,0,0,1-.41.86,2,2,0,0,1-.71.59,2.38,2.38,0,0,1-1,.21,2.2,2.2,0,0,1-1.07-.23,2,2,0,0,1-.72-.6,2.34,2.34,0,0,1-.39-.86,4.31,4.31,0,0,1-.12-1v-2.79h1V105a3.52,3.52,0,0,0,.06.66,1.77,1.77,0,0,0,.21.57,1.35,1.35,0,0,0,.4.39A1.11,1.11,0,0,0,60.87,106.81Z"/><path class="cls-8" d="M65.29,104.21v3.5h-1v-5.46h.79l2.73,3.58v-3.57h1v5.45H68Z"/><path class="cls-8" d="M74.21,106.31a1.3,1.3,0,0,1-.14.6,1.19,1.19,0,0,1-.36.44,1.71,1.71,0,0,1-.54.27,2.32,2.32,0,0,1-.65.09H70v-5.46h2.81a1,1,0,0,1,.49.12,1.32,1.32,0,0,1,.38.32,1.39,1.39,0,0,1,.24.45,1.43,1.43,0,0,1,.09.5,1.5,1.5,0,0,1-.2.75,1.09,1.09,0,0,1-.56.52,1.37,1.37,0,0,1,.72.5A1.5,1.5,0,0,1,74.21,106.31ZM71,103.16v1.37h1.36a.6.6,0,0,0,.44-.18.69.69,0,0,0,.18-.51.73.73,0,0,0-.16-.5.56.56,0,0,0-.42-.18Zm2.18,3a.71.71,0,0,0-.05-.29.76.76,0,0,0-.13-.23.49.49,0,0,0-.19-.16.48.48,0,0,0-.24-.06H71v1.44h1.52a.58.58,0,0,0,.26,0,.8.8,0,0,0,.21-.15.88.88,0,0,0,.14-.23A.81.81,0,0,0,73.18,106.11Z"/><path class="cls-8" d="M75.08,107.71v-5.46h1v5.46Z"/><path class="cls-8" d="M77.27,107.71v-5.46h1v4.53H81v.93Z"/><path class="cls-8" d="M81.66,107.71v-5.46h1v4.53h2.67v.93Z"/><path class="cls-8" d="M86.05,107.71v-5.46h1v5.46Z"/><path class="cls-8" d="M89.25,104.21v3.5h-1v-5.46H89l2.73,3.58v-3.57h1v5.45H92Z"/><path class="cls-8" d="M97.59,107.1a2,2,0,0,1-1.46.65,2.33,2.33,0,0,1-1-.21,2.55,2.55,0,0,1-.79-.6,2.81,2.81,0,0,1-.53-.89,3,3,0,0,1-.19-1.1,2.89,2.89,0,0,1,.19-1.06,2.77,2.77,0,0,1,.54-.87,2.49,2.49,0,0,1,.81-.59,2.29,2.29,0,0,1,1-.22,2.42,2.42,0,0,1,1.27.32,2.16,2.16,0,0,1,.8.87l-.76.59a1.56,1.56,0,0,0-.56-.63,1.52,1.52,0,0,0-.78-.21,1.23,1.23,0,0,0-.61.15,1.41,1.41,0,0,0-.48.4,1.88,1.88,0,0,0-.3.58,2.28,2.28,0,0,0-.11.7,2.09,2.09,0,0,0,.12.72,1.83,1.83,0,0,0,.33.58,1.41,1.41,0,0,0,.49.39,1.29,1.29,0,0,0,.62.14,1.79,1.79,0,0,0,1.37-.74v-.39H96.53v-.78h1.9v2.81h-.84Z"/><path class="cls-8" d="M53.39,111a.75.75,0,0,0-.47.15.77.77,0,0,0-.28.4v1.32h-.27v-2.12h.25v.51a1.06,1.06,0,0,1,.3-.38.73.73,0,0,1,.42-.14h0Z"/><path class="cls-8" d="M54.71,112.88a.9.9,0,0,1-.4-.09.85.85,0,0,1-.33-.24,1,1,0,0,1-.21-.35,1.14,1.14,0,0,1,0-.84A1,1,0,0,1,54,111a1.08,1.08,0,0,1,.32-.24,1,1,0,0,1,.41-.08.94.94,0,0,1,.41.08,1.08,1.08,0,0,1,.32.24,1.1,1.1,0,0,1,.2.35,1.15,1.15,0,0,1,.08.41v.07s0,0,0,0H54a.84.84,0,0,0,.08.32,1.32,1.32,0,0,0,.16.25.78.78,0,0,0,.24.16.64.64,0,0,0,.28.06.63.63,0,0,0,.19,0,.75.75,0,0,0,.18-.07.93.93,0,0,0,.15-.13.4.4,0,0,0,.1-.15l.23.06a.71.71,0,0,1-.13.22,1,1,0,0,1-.2.16.8.8,0,0,1-.25.11A.92.92,0,0,1,54.71,112.88Zm.75-1.21a.74.74,0,0,0-.07-.31,1,1,0,0,0-.17-.24.72.72,0,0,0-.51-.22.71.71,0,0,0-.28.06.73.73,0,0,0-.23.16.78.78,0,0,0-.16.24,1.08,1.08,0,0,0-.07.31Z"/><path class="cls-8" d="M57.16,112.88a.86.86,0,0,1-.39-.09,1,1,0,0,1-.31-.24,1.1,1.1,0,0,1-.2-.35,1.14,1.14,0,0,1-.07-.41,1.25,1.25,0,0,1,.07-.43,1.08,1.08,0,0,1,.19-.35,1,1,0,0,1,.29-.24.81.81,0,0,1,.38-.08.71.71,0,0,1,.45.14.84.84,0,0,1,.31.34v-1.3h.27v2.61q0,.12.09.12v.24h-.09a.23.23,0,0,1-.16-.06.18.18,0,0,1-.07-.15v-.21a.87.87,0,0,1-.33.33A.85.85,0,0,1,57.16,112.88Zm.06-.24a1,1,0,0,0,.21,0,.82.82,0,0,0,.2-.12.65.65,0,0,0,.17-.16.42.42,0,0,0,.08-.21v-.65a.61.61,0,0,0-.11-.21.91.91,0,0,0-.17-.17.78.78,0,0,0-.2-.11.6.6,0,0,0-.22,0,.54.54,0,0,0-.29.07.74.74,0,0,0-.23.2.72.72,0,0,0-.15.27,1.13,1.13,0,0,0,0,.32.87.87,0,0,0,.06.32.72.72,0,0,0,.16.27.88.88,0,0,0,.24.19A.6.6,0,0,0,57.22,112.64Z"/><path class="cls-8" d="M61,112.88a.86.86,0,0,1-.39-.09,1,1,0,0,1-.31-.24,1.33,1.33,0,0,1-.2-.35,1.41,1.41,0,0,1-.07-.41,1.25,1.25,0,0,1,.07-.43,1.31,1.31,0,0,1,.19-.35,1,1,0,0,1,.3-.24.75.75,0,0,1,.37-.08.76.76,0,0,1,.46.14,1,1,0,0,1,.31.34v-1.3H62v2.61c0,.08,0,.12.1.12v.24H62a.25.25,0,0,1-.16-.06.18.18,0,0,1-.07-.15v-.21a.87.87,0,0,1-.33.33A.85.85,0,0,1,61,112.88Zm.06-.24a.78.78,0,0,0,.21,0,1.13,1.13,0,0,0,.21-.12.85.85,0,0,0,.17-.16.54.54,0,0,0,.08-.21v-.65a1.39,1.39,0,0,0-.11-.21l-.17-.17a1.06,1.06,0,0,0-.21-.11.52.52,0,0,0-.21,0,.6.6,0,0,0-.3.07.74.74,0,0,0-.23.2,1.17,1.17,0,0,0-.15.27,1.13,1.13,0,0,0,0,.32.87.87,0,0,0,.06.32.72.72,0,0,0,.16.27.88.88,0,0,0,.24.19A.63.63,0,0,0,61,112.64Z"/><path class="cls-8" d="M63.64,112.88a.91.91,0,0,1-.41-.09.82.82,0,0,1-.32-.24,1,1,0,0,1-.21-.35,1.14,1.14,0,0,1,0-.84,1,1,0,0,1,.21-.35,1,1,0,0,1,.32-.24.91.91,0,0,1,.41-.08.9.9,0,0,1,.4.08,1,1,0,0,1,.32.24,1.13,1.13,0,0,1,.21.35,1.14,1.14,0,0,1,.07.41v.11H62.9a1.07,1.07,0,0,0,.07.32,1.38,1.38,0,0,0,.17.25.87.87,0,0,0,.23.16.67.67,0,0,0,.28.06.69.69,0,0,0,.2,0l.18-.07a.86.86,0,0,0,.14-.13.42.42,0,0,0,.11-.15l.23.06a1,1,0,0,1-.14.22.64.64,0,0,1-.2.16.71.71,0,0,1-.25.11A.86.86,0,0,1,63.64,112.88Zm.75-1.21a.75.75,0,0,0-.08-.31.78.78,0,0,0-.16-.24.73.73,0,0,0-.23-.16.68.68,0,0,0-.56,0,.63.63,0,0,0-.23.16.78.78,0,0,0-.16.24,1.09,1.09,0,0,0-.08.31Z"/><path class="cls-8" d="M67,112.88a.65.65,0,0,1-.62-.4.55.55,0,0,1,0-.26.51.51,0,0,1,.06-.25.55.55,0,0,1,.17-.2.87.87,0,0,1,.27-.14,1.29,1.29,0,0,1,.35,0,1.63,1.63,0,0,1,.31,0,2,2,0,0,1,.29.08v-.19a.63.63,0,0,0-.15-.44.58.58,0,0,0-.43-.17,1,1,0,0,0-.32.07,1.12,1.12,0,0,0-.33.19l-.09-.19a1.35,1.35,0,0,1,.76-.27.78.78,0,0,1,.6.22.84.84,0,0,1,.22.62v1c0,.08,0,.12.1.12v.24H68a.21.21,0,0,1-.16,0,.18.18,0,0,1-.06-.15v-.16a.9.9,0,0,1-.35.29A1,1,0,0,1,67,112.88Zm.06-.21a.92.92,0,0,0,.38-.08.6.6,0,0,0,.27-.22.22.22,0,0,0,0-.08.19.19,0,0,0,0-.07v-.35a1.29,1.29,0,0,0-.28-.08,1.36,1.36,0,0,0-.29,0,.81.81,0,0,0-.46.12.39.39,0,0,0-.17.32.41.41,0,0,0,0,.19.44.44,0,0,0,.1.15.38.38,0,0,0,.15.09A.43.43,0,0,0,67,112.67Z"/><path class="cls-8" d="M68.62,111.78a1.26,1.26,0,0,1,.08-.43.84.84,0,0,1,.21-.35,1,1,0,0,1,.32-.23,1.05,1.05,0,0,1,.91,0,.79.79,0,0,1,.33.37l-.26.09a.63.63,0,0,0-.58-.35.57.57,0,0,0-.29.07.81.81,0,0,0-.24.17,1.17,1.17,0,0,0-.15.27.9.9,0,0,0-.06.34.92.92,0,0,0,.06.33.85.85,0,0,0,.16.28.69.69,0,0,0,.24.18.55.55,0,0,0,.28.07.69.69,0,0,0,.2,0l.17-.08a.41.41,0,0,0,.14-.12.38.38,0,0,0,.09-.13l.26.08a.8.8,0,0,1-.13.21.74.74,0,0,1-.19.16.71.71,0,0,1-.25.11.86.86,0,0,1-.28,0,.9.9,0,0,1-.4-.09.78.78,0,0,1-.33-.24,1,1,0,0,1-.21-.35A1.16,1.16,0,0,1,68.62,111.78Z"/><path class="cls-8" d="M72.08,112.74l-.07,0-.11,0a.4.4,0,0,1-.13,0l-.15,0a.47.47,0,0,1-.17,0l-.13-.07a.64.64,0,0,1-.1-.13.48.48,0,0,1,0-.18v-1.52h-.28v-.22h.28V110h.26v.71h.47v.22h-.47v1.44a.21.21,0,0,0,.08.17.25.25,0,0,0,.17.06.45.45,0,0,0,.2,0l.11,0Z"/><path class="cls-8" d="M72.6,110.28v-.41h.27v.41Zm0,2.56v-2.12h.27v2.12Z"/><path class="cls-8" d="M74.26,112.84l-.83-2.12h.28l.69,1.87.71-1.87h.25l-.82,2.12Z"/><path class="cls-8" d="M75.93,110.28v-.41h.26v.41Zm0,2.56v-2.12h.26v2.12Z"/><path class="cls-8" d="M77.81,112.88a.86.86,0,0,1-.39-.09,1,1,0,0,1-.31-.24,1.1,1.1,0,0,1-.2-.35,1.14,1.14,0,0,1-.07-.41,1.25,1.25,0,0,1,.07-.43,1.08,1.08,0,0,1,.19-.35,1,1,0,0,1,.29-.24.81.81,0,0,1,.38-.08.71.71,0,0,1,.45.14,1,1,0,0,1,.32.34v-1.3h.26v2.61q0,.12.09.12v.24H78.8a.23.23,0,0,1-.16-.06.18.18,0,0,1-.07-.15v-.21a1,1,0,0,1-.33.33A.85.85,0,0,1,77.81,112.88Zm.06-.24a1,1,0,0,0,.21,0,.82.82,0,0,0,.2-.12.65.65,0,0,0,.17-.16.56.56,0,0,0,.09-.21v-.65a.88.88,0,0,0-.12-.21.91.91,0,0,0-.17-.17.78.78,0,0,0-.2-.11.6.6,0,0,0-.22,0,.54.54,0,0,0-.29.07.74.74,0,0,0-.23.2.72.72,0,0,0-.15.27,1.13,1.13,0,0,0,0,.32.87.87,0,0,0,.06.32.72.72,0,0,0,.16.27.75.75,0,0,0,.24.19A.6.6,0,0,0,77.87,112.64Z"/><path class="cls-8" d="M80.11,112.88a.66.66,0,0,1-.48-.19.62.62,0,0,1-.15-.21.71.71,0,0,1,0-.26.43.43,0,0,1,.07-.25.47.47,0,0,1,.17-.2.87.87,0,0,1,.27-.14,1.21,1.21,0,0,1,.34,0,1.73,1.73,0,0,1,.32,0,1.58,1.58,0,0,1,.28.08v-.19a.63.63,0,0,0-.15-.44.54.54,0,0,0-.42-.17A1,1,0,0,0,80,111a1.12,1.12,0,0,0-.33.19l-.1-.19a1.38,1.38,0,0,1,.77-.27.78.78,0,0,1,.6.22.84.84,0,0,1,.22.62v1c0,.08,0,.12.1.12v.24h-.1a.21.21,0,0,1-.16,0,.18.18,0,0,1-.06-.15v-.16a.9.9,0,0,1-.35.29A1,1,0,0,1,80.11,112.88Zm.06-.21a.92.92,0,0,0,.38-.08.66.66,0,0,0,.27-.22.22.22,0,0,0,.05-.08.17.17,0,0,0,0-.07v-.35a1.2,1.2,0,0,0-.27-.08,1.43,1.43,0,0,0-.29,0,.81.81,0,0,0-.46.12.36.36,0,0,0-.17.32.58.58,0,0,0,0,.19l.1.15a.51.51,0,0,0,.16.09A.41.41,0,0,0,80.17,112.67Z"/><path class="cls-8" d="M82.75,112.88a.86.86,0,0,1-.39-.09,1,1,0,0,1-.3-.24,1.13,1.13,0,0,1-.21-.35,1.41,1.41,0,0,1-.07-.41,1.55,1.55,0,0,1,.07-.43,1.1,1.1,0,0,1,.2-.35.85.85,0,0,1,.29-.24.77.77,0,0,1,.37-.08.74.74,0,0,1,.46.14.92.92,0,0,1,.31.34v-1.3h.27v2.61q0,.12.09.12v.24h-.09a.25.25,0,0,1-.17-.06.21.21,0,0,1-.07-.15v-.21a.87.87,0,0,1-.33.33A.82.82,0,0,1,82.75,112.88Zm.06-.24a.78.78,0,0,0,.21,0,.72.72,0,0,0,.21-.12.65.65,0,0,0,.17-.16.54.54,0,0,0,.08-.21v-.65a.61.61,0,0,0-.11-.21,1.37,1.37,0,0,0-.17-.17A.84.84,0,0,0,83,111a.52.52,0,0,0-.21,0,.6.6,0,0,0-.3.07.81.81,0,0,0-.37.47.86.86,0,0,0,0,.32,1.13,1.13,0,0,0,0,.32.85.85,0,0,0,.4.46A.66.66,0,0,0,82.81,112.64Z"/><path class="cls-8" d="M85.59,111.78a1.26,1.26,0,0,1,.08-.43,1.13,1.13,0,0,1,.21-.35,1,1,0,0,1,.32-.23.91.91,0,0,1,.41-.08,1,1,0,0,1,.51.13.83.83,0,0,1,.32.37l-.26.09a.6.6,0,0,0-.24-.26.64.64,0,0,0-.34-.09.59.59,0,0,0-.29.07.66.66,0,0,0-.23.17.92.92,0,0,0-.16.27.9.9,0,0,0-.06.34.92.92,0,0,0,.06.33.85.85,0,0,0,.16.28.69.69,0,0,0,.24.18.55.55,0,0,0,.28.07.69.69,0,0,0,.2,0l.18-.08a.53.53,0,0,0,.14-.12.57.57,0,0,0,.08-.13l.26.08a.8.8,0,0,1-.13.21.6.6,0,0,1-.19.16.74.74,0,0,1-.24.11.9.9,0,0,1-.28,0,.91.91,0,0,1-.41-.09.78.78,0,0,1-.33-.24,1,1,0,0,1-.21-.35A1.16,1.16,0,0,1,85.59,111.78Z"/><path class="cls-8" d="M88.92,112.88a1,1,0,0,1-.41-.09.87.87,0,0,1-.31-.23,1.13,1.13,0,0,1-.21-.35,1.2,1.2,0,0,1-.08-.42,1.16,1.16,0,0,1,.08-.42,1,1,0,0,1,.21-.35,1,1,0,0,1,.32-.24.93.93,0,0,1,.8,0,1,1,0,0,1,.32.24,1.23,1.23,0,0,1,.22.35,1.16,1.16,0,0,1,.07.42,1.2,1.2,0,0,1-.07.42,1.13,1.13,0,0,1-.21.35.9.9,0,0,1-.32.23A.91.91,0,0,1,88.92,112.88Zm-.74-1.09a.88.88,0,0,0,.06.33.81.81,0,0,0,.16.27.58.58,0,0,0,.23.18.64.64,0,0,0,.58,0,.66.66,0,0,0,.23-.18.92.92,0,0,0,.22-.6,1,1,0,0,0-.06-.34.92.92,0,0,0-.16-.27.66.66,0,0,0-.23-.18.59.59,0,0,0-.29-.07.53.53,0,0,0-.28.07.69.69,0,0,0-.24.18.85.85,0,0,0-.16.28A.88.88,0,0,0,88.18,111.79Z"/><path class="cls-8" d="M93.6,112.84h-.27v-1.18a1.11,1.11,0,0,0-.11-.55.4.4,0,0,0-.34-.17.54.54,0,0,0-.22,0,.59.59,0,0,0-.19.13.7.7,0,0,0-.15.19.77.77,0,0,0-.1.25v1.29H92v-1.18a1.08,1.08,0,0,0-.11-.55.38.38,0,0,0-.33-.17.6.6,0,0,0-.42.16,1,1,0,0,0-.25.44v1.3h-.27v-2.12h.24v.48a1.12,1.12,0,0,1,.33-.38.81.81,0,0,1,.45-.13.56.56,0,0,1,.41.15.66.66,0,0,1,.19.39.87.87,0,0,1,.79-.54.65.65,0,0,1,.29.06.5.5,0,0,1,.19.19.77.77,0,0,1,.1.28,1.53,1.53,0,0,1,0,.38Z"/><path class="cls-8" d="M95.23,112.88a.87.87,0,0,1-.4-.09.78.78,0,0,1-.33-.24,1,1,0,0,1-.21-.35,1.14,1.14,0,0,1,0-.84,1,1,0,0,1,.21-.35,1.08,1.08,0,0,1,.32-.24,1.09,1.09,0,0,1,.82,0A.92.92,0,0,1,96,111a1.13,1.13,0,0,1,.21.35,1.15,1.15,0,0,1,.08.41v.07s0,0,0,0H94.49a.84.84,0,0,0,.08.32,1.32,1.32,0,0,0,.16.25.87.87,0,0,0,.23.16.71.71,0,0,0,.28.06.64.64,0,0,0,.2,0l.18-.07.15-.13a.4.4,0,0,0,.1-.15l.23.06a1,1,0,0,1-.13.22,1,1,0,0,1-.2.16.8.8,0,0,1-.25.11A.92.92,0,0,1,95.23,112.88Zm.75-1.21a.94.94,0,0,0-.07-.31,1,1,0,0,0-.17-.24.63.63,0,0,0-.23-.16.68.68,0,0,0-.56,0,.73.73,0,0,0-.23.16.78.78,0,0,0-.16.24,1.08,1.08,0,0,0-.07.31Z"/><path class="cls-8" d="M97.86,111a.75.75,0,0,0-.47.15.77.77,0,0,0-.28.4v1.32h-.27v-2.12h.25v.51a1,1,0,0,1,.31-.38.68.68,0,0,1,.41-.14h0Z"/><path class="cls-8" d="M98.17,111.78a1.25,1.25,0,0,1,.07-.43,1.13,1.13,0,0,1,.21-.35,1.24,1.24,0,0,1,.32-.23,1.08,1.08,0,0,1,.92,0,.83.83,0,0,1,.32.37l-.26.09a.55.55,0,0,0-.24-.26.64.64,0,0,0-.34-.09.59.59,0,0,0-.29.07.66.66,0,0,0-.23.17.92.92,0,0,0-.16.27.9.9,0,0,0-.06.34.92.92,0,0,0,.06.33,1.08,1.08,0,0,0,.16.28.69.69,0,0,0,.24.18.59.59,0,0,0,.29.07l.19,0,.18-.08a.53.53,0,0,0,.14-.12.35.35,0,0,0,.08-.13l.26.08a1.13,1.13,0,0,1-.12.21.78.78,0,0,1-.2.16.66.66,0,0,1-.24.11.9.9,0,0,1-.28,0,.91.91,0,0,1-.41-.09.78.78,0,0,1-.33-.24,1,1,0,0,1-.21-.35A1.16,1.16,0,0,1,98.17,111.78Z"/><path class="cls-8" d="M100.65,110.28v-.41h.26v.41Zm0,2.56v-2.12h.26v2.12Z"/><path class="cls-8" d="M102.2,112.88a.58.58,0,0,1-.26,0,.55.55,0,0,1-.22-.14.6.6,0,0,1-.14-.21.55.55,0,0,1,0-.26.51.51,0,0,1,.06-.25.55.55,0,0,1,.17-.2.87.87,0,0,1,.27-.14,1.29,1.29,0,0,1,.35,0,1.63,1.63,0,0,1,.31,0,1.71,1.71,0,0,1,.29.08v-.19a.63.63,0,0,0-.15-.44.54.54,0,0,0-.42-.17.88.88,0,0,0-.32.07,1.16,1.16,0,0,0-.34.19l-.09-.19a1.36,1.36,0,0,1,.77-.27.77.77,0,0,1,.59.22.84.84,0,0,1,.22.62v1c0,.08,0,.12.1.12v.24h-.1a.21.21,0,0,1-.16,0,.18.18,0,0,1-.06-.15v-.16a.9.9,0,0,1-.35.29A1,1,0,0,1,102.2,112.88Zm.06-.21a1,1,0,0,0,.39-.08.63.63,0,0,0,.26-.22.22.22,0,0,0,0-.08.19.19,0,0,0,0-.07v-.35a1.29,1.29,0,0,0-.28-.08,1.36,1.36,0,0,0-.29,0,.77.77,0,0,0-.45.12.37.37,0,0,0-.18.32.41.41,0,0,0,0,.19.65.65,0,0,0,.1.15.38.38,0,0,0,.15.09A.43.43,0,0,0,102.26,112.67Z"/><path class="cls-8" d="M104,109.87h.27v2.49a.29.29,0,0,0,.06.19.24.24,0,0,0,.18.06h.1l.11,0,.05.22-.18.06-.19,0a.4.4,0,0,1-.29-.11.42.42,0,0,1-.11-.31Z"/><g id="shadown" class="cls-9"><path class="cls-10" d="M89.31,98.08c0,1-4.8,1.82-10.73,1.82s-10.74-.81-10.74-1.82,4.81-1.83,10.74-1.83S89.31,97.07,89.31,98.08Z"/><path class="cls-11" d="M89,98.08c0,1-4.65,1.76-10.38,1.76S68.2,99.05,68.2,98.08s4.65-1.76,10.38-1.76S89,97.1,89,98.08Z"/><path class="cls-12" d="M88.6,98.08c0,.94-4.49,1.69-10,1.69s-10-.75-10-1.69,4.48-1.7,10-1.7S88.6,97.14,88.6,98.08Z"/><path class="cls-13" d="M88.25,98.08c0,.9-4.33,1.63-9.67,1.63s-9.67-.73-9.67-1.63,4.33-1.63,9.67-1.63S88.25,97.18,88.25,98.08Z"/><path class="cls-14" d="M87.89,98.08c0,.86-4.17,1.56-9.31,1.56s-9.31-.7-9.31-1.56,4.17-1.57,9.31-1.57S87.89,97.21,87.89,98.08Z"/><path class="cls-15" d="M87.54,98.08c0,.83-4,1.5-9,1.5s-9-.67-9-1.5,4-1.5,9-1.5S87.54,97.25,87.54,98.08Z"/><path class="cls-16" d="M87.18,98.08c0,.79-3.85,1.43-8.6,1.43S70,98.87,70,98.08s3.85-1.44,8.6-1.44S87.18,97.28,87.18,98.08Z"/><path class="cls-17" d="M86.82,98.08c0,.76-3.69,1.37-8.24,1.37s-8.24-.61-8.24-1.37S74,96.7,78.58,96.7,86.82,97.32,86.82,98.08Z"/><path class="cls-18" d="M86.47,98.08c0,.72-3.53,1.31-7.89,1.31s-7.89-.59-7.89-1.31,3.53-1.31,7.89-1.31S86.47,97.35,86.47,98.08Z"/><path class="cls-19" d="M86.11,98.08c0,.69-3.37,1.24-7.53,1.24s-7.53-.55-7.53-1.24,3.37-1.25,7.53-1.25S86.11,97.39,86.11,98.08Z"/><path class="cls-20" d="M85.76,98.08c0,.65-3.22,1.18-7.18,1.18s-7.18-.53-7.18-1.18,3.22-1.18,7.18-1.18S85.76,97.43,85.76,98.08Z"/><path class="cls-21" d="M85.4,98.08c0,.61-3.05,1.11-6.82,1.11s-6.82-.5-6.82-1.11,3-1.12,6.82-1.12S85.4,97.46,85.4,98.08Z"/><path class="cls-22" d="M85,98.08c0,.58-2.89,1-6.46,1s-6.47-.47-6.47-1,2.9-1,6.47-1S85,97.5,85,98.08Z"/><path class="cls-23" d="M84.69,98.08c0,.54-2.74,1-6.11,1s-6.11-.44-6.11-1,2.73-1,6.11-1S84.69,97.53,84.69,98.08Z"/><path class="cls-24" d="M84.33,98.08c0,.51-2.57.92-5.75.92s-5.75-.41-5.75-.92,2.57-.92,5.75-.92S84.33,97.57,84.33,98.08Z"/><path class="cls-25" d="M84,98.08c0,.47-2.42.85-5.4.85s-5.4-.38-5.4-.85,2.42-.86,5.4-.86S84,97.6,84,98.08Z"/><path class="cls-26" d="M83.62,98.08c0,.44-2.26.79-5,.79s-5-.35-5-.79,2.25-.8,5-.8S83.62,97.64,83.62,98.08Z"/><path class="cls-27" d="M83.27,98.08c0,.4-2.1.72-4.69.72s-4.69-.32-4.69-.72,2.1-.73,4.69-.73S83.27,97.68,83.27,98.08Z"/><path class="cls-28" d="M82.91,98.08c0,.36-1.94.66-4.33.66s-4.33-.3-4.33-.66,1.94-.67,4.33-.67S82.91,97.71,82.91,98.08Z"/><path class="cls-29" d="M82.55,98.08c0,.33-1.78.6-4,.6s-4-.27-4-.6,1.78-.6,4-.6S82.55,97.75,82.55,98.08Z"/><path class="cls-30" d="M82.2,98.08c0,.29-1.62.53-3.62.53S75,98.37,75,98.08s1.62-.54,3.62-.54S82.2,97.78,82.2,98.08Z"/><path class="cls-31" d="M81.84,98.08c0,.26-1.46.47-3.26.47s-3.26-.21-3.26-.47,1.46-.47,3.26-.47S81.84,97.82,81.84,98.08Z"/><path class="cls-32" d="M81.49,98.08c0,.22-1.31.4-2.91.4s-2.91-.18-2.91-.4,1.3-.41,2.91-.41S81.49,97.85,81.49,98.08Z"/><path class="cls-33" d="M81.13,98.08c0,.19-1.14.34-2.55.34S76,98.27,76,98.08s1.14-.34,2.55-.34S81.13,97.89,81.13,98.08Z"/><path class="cls-34" d="M80.78,98.08a4.72,4.72,0,0,1-2.2.27,4.72,4.72,0,0,1-2.2-.27c0-.16,1-.28,2.2-.28S80.78,97.92,80.78,98.08Z"/><path class="cls-35" d="M80.42,98.08a4.34,4.34,0,0,1-1.84.21,4.31,4.31,0,0,1-1.84-.21,4.13,4.13,0,0,1,1.84-.21A4.17,4.17,0,0,1,80.42,98.08Z"/><path class="cls-36" d="M80.06,98.08a7.89,7.89,0,0,1-3,0,7.38,7.38,0,0,1,3,0Z"/></g><path class="cls-37" d="M81.47,92.19c-6.56,3.61-8.91-8.29-8.92-8.36s-.53-.38-.5.27c.09,1.84.49,6.07,0,6.86s-1.65.27-2.18.15c-.22-.06-.34.18-.18.36s5.47,7.2,12.95,3Z"/><path class="cls-38" d="M70,89.71A1.13,1.13,0,0,0,71.52,89a1.22,1.22,0,0,0-.66-1.56,1.15,1.15,0,0,0-1.49.69A1.21,1.21,0,0,0,70,89.71Z"/><g class="cls-39"><path class="cls-40" d="M80.06,81.35c-.13-.21-.34-.22-.39,0-.12.56-.23,1.86-1.06,2s-4.4-2.06-6-2.93c-.56-.32-.62.21-.46.34s10.3,6.61,1.12,13.8a13.29,13.29,0,0,0,1.38.64,7.91,7.91,0,0,0,1.42.42C84.64,92,81.31,83.31,80.06,81.35Z"/><path class="cls-41" d="M77.16,82a1.17,1.17,0,0,0,1.23-1.11,1.2,1.2,0,0,0-1.07-1.29,1.2,1.2,0,0,0-.16,2.4Z"/></g><g class="cls-39"><path class="cls-42" d="M85.55,82.77a1.11,1.11,0,0,0,1.59.34,1.24,1.24,0,0,0,.34-1.66,1.14,1.14,0,0,0-1.6-.35A1.24,1.24,0,0,0,85.55,82.77Z"/><path class="cls-43" d="M87.58,84.44c-.5.24-1.56.94-2.16.33s-1.09-4.9-1.37-6.71c-.09-.65-.53-.38-.53-.17s.65,12.69-6.4,10.7a3,3,0,0,1-.19,1.2,7.36,7.36,0,0,1-.79,1.77c5.42,5.19,11.59-6.63,11.68-6.79S87.79,84.35,87.58,84.44Z"/></g><rect class="cls-1" x="71.26" y="77.65" width="7.17" height="22.22"/><polygon class="cls-44" points="64.32 128.46 31.61 128.46 31.61 61.91 116.87 61.91 64.32 128.46"/><path class="cls-45" d="M139.39,158.72c0,3.35-18.1,6.07-40.43,6.07s-40.44-2.72-40.44-6.07,18.11-6.07,40.44-6.07S139.39,155.37,139.39,158.72Z"/><path class="cls-7" d="M119.93,151.19c-2.42-3.6-3-5.12-3-7.25v-8.18H83.25v8.18c0,2.13-.62,3.65-3,7.25s-5.67,7.26-5.67,7.74v2.35H125.6v-2.35C125.6,158.45,122.35,154.78,119.93,151.19Z"/><path class="cls-46" d="M94.17,135.76H83.25v8.18c0,1.87-.48,3.27-2.23,6l35.85-7.47,0,0v-6.7Z"/><path class="cls-7" d="M168.53,51.38V47.53a5,5,0,0,0-5-5H36.62a5,5,0,0,0-5,5v3.85Z"/><path class="cls-7" d="M31.61,128.57v6a5,5,0,0,0,5,5h126.9a5,5,0,0,0,5-5v-6Z"/><path class="cls-47" d="M18.19,68.81a4.12,4.12,0,0,1-1.63,1.4c-.89.46-2.82.77-1.72,1.06a6.41,6.41,0,0,0,3-.13,14.36,14.36,0,0,1,2-.25c1-.06,1-.12.79-1.23C20.33,68.14,18.59,67.91,18.19,68.81Z"/><path class="cls-48" d="M39.43,1.42c-1.87-1.58-7-3.36-8.84,3.84S16.79,16.35,19.74,24.17s17.38,7.6,20-1.26S45.18,6.28,39.43,1.42Z"/><path class="cls-49" d="M33.21,26.16c.58-.72,1.68-2.44,3.34-6.86A34.76,34.76,0,0,0,38,14.6c.36-1.49-.78-2.14-1.55-1.82a5.33,5.33,0,0,0-2.63,2.71c-1.34,4.41-2.23,7.77-2.73,8.84C30.38,25.88,32.52,27,33.21,26.16Z"/><path class="cls-49" d="M23.83,30.31c.67.22,1-.57,3.14-1.25a20.25,20.25,0,0,0,5.94-2.7c1.34-.84.68-3.1-1.12-2.41-1.51.59-7.43,4.59-8.36,4.94C22.82,29.13,23.28,30.13,23.83,30.31Z"/><path class="cls-50" d="M40,7.79c0,.12.77,2.83,1.21,4.93A2,2,0,0,1,40.17,15h0a1.86,1.86,0,0,1-1.89-1.64c-.24-1.86-.69-3.72-.7-3.75Z"/><path class="cls-51" d="M44.46,19.25a36.78,36.78,0,0,0-.22,6,15.07,15.07,0,0,0,.86,4.34c.28.84.62,1.67,1,2.48.13.31,1.27,2.79,1.35,3.07L35.54,37.45c-.33-2.35.91-10.18-1.79-14.57-1.88-3.05-.24-3.47.35-6.42a8.4,8.4,0,0,1,.57-2.16,3.46,3.46,0,0,1,1.61-1.46,5.89,5.89,0,0,1,1.07-.37c2-.55,6.61-2,7.61.73a5.11,5.11,0,0,1,.2,2.36c-.1.89-.35,1.75-.52,2.63C44.57,18.54,44.51,18.9,44.46,19.25Z"/><path class="cls-50" d="M37.75,31.09c-.6,1.37-1.15,2-1.07,2.72s1.24,0,1.52-.43,1.39-2,1.19-2.57S38.19,30.08,37.75,31.09Z"/><path class="cls-51" d="M47.94,25.25c0-.92-.09-3-1.38-7.51A33.23,33.23,0,0,0,45,13.08c-.59-1.41-1.89-1.26-2.33-.54a5.38,5.38,0,0,0-.51,3.73c1.55,4.35,2.82,7.58,3.05,8.74C45.5,26.7,47.88,26.33,47.94,25.25Z"/><path class="cls-50" d="M40.06,5.24c.73,2.28.87,2.8.3,4.11a5.63,5.63,0,0,1-2.8,2.76c-1.12.48-2.47-.34-3.12-1.16a17.31,17.31,0,0,1-2.68-5.51,3.87,3.87,0,0,1,2.05-4.08C35.36.69,38.29-.36,40.06,5.24Z"/><path class="cls-52" d="M24.93,28.9a8.7,8.7,0,0,0-2-.16c-.81.1-1.2.66-1.08.87s.84,1,1.36.94A1.75,1.75,0,0,0,24.4,30C24.66,29.64,25.59,29.08,24.93,28.9Z"/><path class="cls-47" d="M27.17,57.84A4.07,4.07,0,0,1,26.93,60c-.33,1-1.53,2.49-.52,2a6.32,6.32,0,0,0,2.07-2.13,13.17,13.17,0,0,1,1.29-1.54c.68-.72.64-.77-.26-1.44C28.27,55.9,26.85,56.92,27.17,57.84Z"/><path class="cls-48" d="M33.79,2.76c.31,1.34-1.74,2.57-1.67,3.75.05.74-.93-1.23-.81-2.36S33.17.07,33.79,2.76Z"/><path class="cls-53" d="M19.55,43.88C17.73,40.52,21,39,23.15,41.42c3.41,3.78,4.38,10.35,6.87,15.8-1-.66-1.41-.74-1.92-.56a1.62,1.62,0,0,0-1,1.1C23.78,50.63,21.48,47.47,19.55,43.88Z"/><path class="cls-48" d="M47,43.09s4-.49.48-7.92L35.54,37.45s-2.26,4.69,3.09,7.24Z"/><path class="cls-53" d="M21.1,44.47c-1.62-.1-4.31-3.68,1.31-4.56,2.49-.39,16.12-3.06,17.45-3.27a2.91,2.91,0,0,1,2.77,1c2,2.82-.2,5.9-5.44,6.32C33.79,44.2,24.47,44.7,21.1,44.47Z"/><path class="cls-48" d="M25.85,51.07c1.39-4,5.17-2.39,4.64.79-.75,4.49-8.34,15.5-9.86,17.7-.2.29-.32.13-.45,0-.37-.49-.71-.86-.94-.9a4.3,4.3,0,0,0-1,0C19.92,65.41,24.5,54.91,25.85,51.07Z"/><path class="cls-48" d="M40.4,38.42c4.52-2.35,8.83-1.14,8.45,2.31a4.32,4.32,0,0,1-2.43,3.1c-1.17.68-13.56,6.89-15.73,8.16-4.91,2.87-5.17-1.68-3.91-2.71C30,46.68,37.94,39.71,40.4,38.42Z"/><path class="cls-50" d="M39.74,5.81c-.17.88.06,1.66.51,1.75s1-.54,1.15-1.42,0-1.65-.51-1.75S39.92,4.93,39.74,5.81Z"/><path class="cls-1" d="M45.05,24.56l-.81.62c0-1,0-2.05,0-3.08C44.61,23.14,44.9,24,45.05,24.56Z"/><path class="cls-1" d="M47.32,35.19l-1.13.22Z"/><path class="cls-1" d="M45.37,35.56l-.41.08Z"/><path class="cls-1" d="M41.29,36.35l.88-.17Z"/><path class="cls-1" d="M23.69,30.44l.24-.11c.5.09.88-.39,2.14-.93a12.83,12.83,0,0,0,9.29-1.12,63.4,63.4,0,0,1,.12,7.65C31.36,34,25.46,31.31,23.69,30.44Z"/><path class="cls-7" d="M35.31,36.64H35.1L31.43,28a.59.59,0,0,0,.35-.56.58.58,0,0,0-.61-.54l-12.84.72a.57.57,0,0,0-.45.27.56.56,0,0,0,0,.52L22,38.15a.59.59,0,0,0,.56.35l12.84-.72a.57.57,0,0,0,.54-.6A.56.56,0,0,0,35.31,36.64Z"/><path class="cls-54" d="M43.75,37.32l-8.38.46a.59.59,0,0,1-.56-.35l-4.13-9.7a.57.57,0,1,1,1.05-.45l4,9.33,8-.44a.57.57,0,0,1,.6.54A.58.58,0,0,1,43.75,37.32Z"/><path class="cls-48" d="M31.64,4.13C31.41,6,38.81,6,40.1,5.14S39.93,1.8,38.28.91,32.17-.2,31.64,4.13Z"/><path class="cls-49" d="M38.19,30.52s-.15-.93,6-5.94v1.59"/><path class="cls-51" d="M38.89,31.49c.55.13,1-.87,3-1.83a20.46,20.46,0,0,0,5.52-3.49c1.22-1,.25-3.17-1.43-2.24-1.43.79-6.86,5.58-7.59,6.24C37.93,30.58,38.34,31.36,38.89,31.49Z"/><path class="cls-55" d="M186.9,57a.88.88,0,0,1-.79-.28l-3-3.84a1.13,1.13,0,0,1-.19-.87L184,47.21a.86.86,0,0,1,.6-.6l15.24-3.38a.49.49,0,0,1,.59.38l.94,4.2.21,1,.94,4.2a.5.5,0,0,1-.38.59Z"/><path class="cls-56" d="M184.91,50.82a1.18,1.18,0,1,0,1.46.89,1.2,1.2,0,0,0-1.46-.89"/><path class="cls-56" d="M185,51.28a.71.71,0,1,0,.88.53.73.73,0,0,0-.88-.53"/><path class="cls-57" d="M188.49,51.6a.69.69,0,0,0,.2.33.78.78,0,0,0,.65.08,1.16,1.16,0,0,0,.4-.14.39.39,0,0,0,.22-.45.28.28,0,0,0-.2-.23,1.85,1.85,0,0,0-.5-.07h-.39a2.65,2.65,0,0,1-.8-.11.85.85,0,0,1-.49-.67,1,1,0,0,1,.18-.83,1.44,1.44,0,0,1,.93-.5,1.54,1.54,0,0,1,1,.09,1.05,1.05,0,0,1,.58.75l-.69.14a.48.48,0,0,0-.36-.38.82.82,0,0,0-.44,0,.91.91,0,0,0-.43.2.37.37,0,0,0-.1.35.26.26,0,0,0,.22.23,1.58,1.58,0,0,0,.48,0l.62,0a1.5,1.5,0,0,1,.64.13.84.84,0,0,1,.45.63,1,1,0,0,1-.2.85,1.54,1.54,0,0,1-1,.52,1.71,1.71,0,0,1-1.12-.09,1,1,0,0,1-.55-.76Z"/><path class="cls-57" d="M191.62,48.51l.81-.16,1.9,3.16-.77.16-.37-.66-1.26.26-.09.74-.74.16Zm.39,2.13.87-.18-.71-1.25Z"/><polygon class="cls-57" points="194.06 48.01 194.78 47.87 195.35 50.66 197.05 50.31 197.17 50.93 194.76 51.42 194.06 48.01"/><polygon class="cls-57" points="199.6 47.51 197.79 47.88 197.94 48.6 199.6 48.27 199.72 48.86 198.06 49.2 198.24 50.07 200.13 49.69 200.25 50.3 197.67 50.82 196.98 47.42 199.47 46.91 199.6 47.51"/><path class="cls-58" d="M172.18,57.62a1.61,1.61,0,0,0,.25.61,1.9,1.9,0,0,0,.83.73,5.12,5.12,0,0,0,3.4,0,13.6,13.6,0,0,0,2.17-.82c.33-.16.66-.32,1-.51s.63-.35.94-.55a16.06,16.06,0,0,0,3.41-2.83,9.74,9.74,0,0,0,.82-1.06,4.66,4.66,0,0,0,.3-.47c.1-.17.19-.35.27-.52a.42.42,0,0,0-.2-.57.43.43,0,0,0-.57.21c-.09.17-.18.34-.28.51s-.18.29-.28.44a8.43,8.43,0,0,1-.6.77,14.59,14.59,0,0,1-3.33,2.8c-.44.28-.89.53-1.34.76a11.63,11.63,0,0,1-1.14.53,12.78,12.78,0,0,1-1.38.49,4.35,4.35,0,0,1-2.8.08,1.08,1.08,0,0,1-.48-.41.86.86,0,0,1-.15-.42,5.62,5.62,0,0,0-.82.27"/><path class="cls-59" d="M174.56,56.62l-148.85,0a.92.92,0,0,0,0,1.84l148.85,0a.92.92,0,0,0,0-1.84"/><rect class="cls-60" x="30.5" y="51.22" width="139.27" height="1.81"/><rect class="cls-61" x="31.71" y="49.41" width="137.42" height="1.81"/><path class="cls-60" d="M162.24,56.64v4.89a5.64,5.64,0,0,0,5.64,5.64h0a5.65,5.65,0,0,0,5.65-5.64V56.64Z"/><path class="cls-60" d="M139.65,56.64v4.89a5.65,5.65,0,0,0,11.29,0V56.64Z"/><path class="cls-60" d="M117.07,56.64v4.89a5.65,5.65,0,0,0,11.29,0V56.64Z"/><path class="cls-60" d="M94.49,56.64v4.89a5.65,5.65,0,0,0,11.29,0V56.64Z"/><path class="cls-60" d="M71.91,56.64v4.89a5.65,5.65,0,0,0,11.29,0V56.64Z"/><path class="cls-60" d="M49.33,56.64v4.89a5.65,5.65,0,0,0,11.29,0V56.64Z"/><polyline class="cls-57" points="62.64 53.03 60.62 56.64 49.33 56.64 51.92 53.03"/><polyline class="cls-57" points="84.07 53.03 83.2 56.64 71.91 56.64 73.35 53.03"/><polyline class="cls-57" points="105.49 53.03 105.78 56.64 94.49 56.64 94.78 53.03"/><polyline class="cls-57" points="126.92 53.03 128.36 56.64 117.07 56.64 116.2 53.03"/><path class="cls-61" d="M150.94,56.64v4.89a5.65,5.65,0,0,0,11.3,0V56.64Z"/><path class="cls-61" d="M128.36,56.64v4.89a5.65,5.65,0,0,0,11.29,0V56.64Z"/><path class="cls-61" d="M105.78,56.64v4.89a5.65,5.65,0,0,0,11.29,0V56.64Z"/><path class="cls-61" d="M83.2,56.64v4.89a5.65,5.65,0,0,0,11.29,0V56.64Z"/><path class="cls-61" d="M60.62,56.64v4.89a5.64,5.64,0,0,0,5.64,5.64h0a5.65,5.65,0,0,0,5.65-5.64V56.64Z"/><path class="cls-61" d="M38,56.64v4.89a5.65,5.65,0,0,0,11.3,0V56.64Z"/><polyline class="cls-6" points="159.3 52.82 162.85 56.85 150.24 56.85 147.33 52.82"/><polyline class="cls-6" points="51.92 53.03 49.33 56.64 38.03 56.64 41.21 53.03"/><polyline class="cls-6" points="73.35 53.03 71.91 56.64 60.62 56.64 62.64 53.03"/><polyline class="cls-6" points="94.78 53.03 94.49 56.64 83.2 56.64 84.07 53.03"/><polyline class="cls-6" points="116.2 53.03 117.07 56.64 105.78 56.64 105.49 53.03"/><polyline class="cls-6" points="137.63 53.03 139.65 56.64 128.36 56.64 126.92 53.03"/><polyline class="cls-57" points="148.34 53.03 150.94 56.64 139.65 56.64 137.63 53.03"/><polyline class="cls-57" points="169.77 53.03 173.53 56.64 162.24 56.64 159.06 53.03"/><path class="cls-60" d="M38.07,56.64v4.89a5.65,5.65,0,0,1-5.65,5.64h0a5.64,5.64,0,0,1-5.64-5.64V56.64Z"/><polyline class="cls-57" points="30.53 53.03 26.78 56.64 38.07 56.64 41.24 53.03"/><path class="cls-58" d="M172.15,57.42a.69.69,0,0,0,0,.2,5.62,5.62,0,0,1,.82-.27,1.78,1.78,0,0,1,.34-1.05,8.3,8.3,0,0,0-1.09.28,2,2,0,0,0-.1.84"/><path class="cls-58" d="M183.67,50.73a.4.4,0,0,0-.39-.41h-.14a19.84,19.84,0,0,0-7.56,2.9,11.77,11.77,0,0,0-2.47,2,3.9,3.9,0,0,0-.86,1.37,8.3,8.3,0,0,1,1.09-.28,4.66,4.66,0,0,1,.41-.52A11.18,11.18,0,0,1,176,53.94a19.28,19.28,0,0,1,7-2.75h.14c.24,0,.47-.15.46-.45"/><polygon class="cls-55" points="183.37 49.92 183 51.5 183.65 51.58 184.31 50.09 183.37 49.92"/><path class="cls-45" d="M68.58,164.51c0,1.47-10.38,2.66-23.17,2.66S22.24,166,22.24,164.51s10.37-2.66,23.17-2.66S68.58,163,68.58,164.51Z"/><path class="cls-62" d="M29,162.94c0,.6-4.25,1.09-9.49,1.09S10,163.54,10,162.94s4.24-1.09,9.48-1.09S29,162.33,29,162.94Z"/><path class="cls-62" d="M121.26,166.64c0,.76-13.82,1.38-30.86,1.38s-30.87-.62-30.87-1.38,13.82-1.38,30.87-1.38S121.26,165.88,121.26,166.64Z"/><polygon class="cls-63" points="65.92 166.08 68.87 163.65 71.81 166.08 65.92 166.08"/><rect class="cls-64" x="107.44" y="150.75" width="11.28" height="15.11"/><g class="cls-65"><path class="cls-66" d="M111.7,152.55a.56.56,0,1,1-.56-.56A.56.56,0,0,1,111.7,152.55Z"/></g><g class="cls-65"><path class="cls-66" d="M115.58,152.55a.56.56,0,0,1-.56.56.56.56,0,1,1,0-1.12A.56.56,0,0,1,115.58,152.55Z"/></g><path class="cls-67" d="M115,152.81a.26.26,0,0,1-.26-.26v-2.63a1.68,1.68,0,0,0-3.36,0v2.63a.26.26,0,0,1-.26.26.26.26,0,0,1-.25-.26v-2.63a2.19,2.19,0,1,1,4.38,0v2.63A.26.26,0,0,1,115,152.81Z"/><path class="cls-51" d="M109.5,146.93H96.34q-.81,9.85-1.63,19.73h16.42Q110.32,156.79,109.5,146.93Z"/><path class="cls-68" d="M101.07,149a.7.7,0,1,1-.7-.7A.69.69,0,0,1,101.07,149Z"/><path class="cls-68" d="M106.16,149a.69.69,0,1,1-.69-.7A.69.69,0,0,1,106.16,149Z"/><rect class="cls-69" x="65.92" y="147.02" width="5.89" height="19.06"/><rect class="cls-63" x="68.58" y="147.02" width="0.58" height="17"/><path class="cls-67" d="M67.66,139.93a.24.24,0,0,0,0-.33.23.23,0,0,0-.33,0c-1.84,2-2.27,3.44-2.27,7.73v1.27a.87.87,0,0,0,.87.87V149a.4.4,0,0,1-.4-.4v-1.27C65.52,143.15,65.9,141.84,67.66,139.93Z"/><path class="cls-67" d="M70.07,139.93a.24.24,0,0,1,0-.33.24.24,0,0,1,.34,0c1.84,2,2.26,3.44,2.26,7.73v1.27a.87.87,0,0,1-.87.87V149a.4.4,0,0,0,.4-.4v-1.27C72.21,143.15,71.83,141.84,70.07,139.93Z"/><rect class="cls-70" x="85.47" y="148.56" width="12.98" height="17.39"/><path class="cls-71" d="M90.38,150.63a.65.65,0,1,1-.65-.64A.65.65,0,0,1,90.38,150.63Z"/><path class="cls-71" d="M94.83,150.63a.65.65,0,1,1-.64-.64A.65.65,0,0,1,94.83,150.63Z"/><path class="cls-67" d="M94.19,150.93a.29.29,0,0,1-.3-.3v-3a1.94,1.94,0,0,0-3.87,0v3a.29.29,0,1,1-.58,0v-3a2.52,2.52,0,0,1,5,0v3A.29.29,0,0,1,94.19,150.93Z"/><path class="cls-64" d="M87.84,144.17H72.7q-.93,11.34-1.87,22.7H89.72Q88.78,155.52,87.84,144.17Z"/><path class="cls-72" d="M78.14,146.51a.8.8,0,1,1-.8-.8A.8.8,0,0,1,78.14,146.51Z"/><path class="cls-72" d="M84,146.51a.8.8,0,0,1-.8.8.8.8,0,0,1,0-1.6A.8.8,0,0,1,84,146.51Z"/><path class="cls-67" d="M83.2,146.85a.34.34,0,0,1-.33-.34c0-1.23.07-2.43.14-3.49.16-2.55.29-4.56-.63-5.54a3.53,3.53,0,0,0-4.22,0c-.92,1-.79,3-.63,5.54.07,1.06.15,2.26.15,3.49a.34.34,0,0,1-.34.34.34.34,0,0,1-.34-.34c0-1.21-.07-2.35-.14-3.45-.17-2.71-.31-4.85.81-6a3.37,3.37,0,0,1,2.6-.91,3.41,3.41,0,0,1,2.61.91c1.11,1.19,1,3.33.8,6-.07,1.1-.14,2.24-.14,3.45A.34.34,0,0,1,83.2,146.85Z"/><polygon class="cls-73" points="24.13 163.23 14.83 163.23 13.58 151.27 25.38 151.27 24.13 163.23"/><path class="cls-74" d="M8.21,136.67a29.93,29.93,0,0,0,.09-3.41c-.19-1.46-1-2.78-1.18-4.25-.34-3.14,2.5-5.84,2.65-9,.08-1.69-.6-3.53.25-5a20.14,20.14,0,0,1,1.4-1.66,14,14,0,0,0,1.4-3.46c.45-1.17,1.35-2.35,2.59-2.41,1.5-.06,2.57,1.55,2.75,3s-.2,3,0,4.5c.49,3.31,3.79,5.89,3.64,9.23-.07,1.57-.86,3.32.09,4.57a6.72,6.72,0,0,0,1.29,1.08A6.4,6.4,0,0,1,25.32,135a18.86,18.86,0,0,1-1.18,5.57C21.29,149.44,8.3,144.8,8.21,136.67Z"/><path class="cls-75" d="M20.46,136.82A33,33,0,0,0,18,141.66c-.27-2.27-.54-4.54-.78-6.82a.25.25,0,0,0,.15-.15l2.25-6.16c.1-.28-.35-.4-.45-.13q-1,2.81-2.05,5.61c-.34-3.23-.67-6.46-1-9.7a50.84,50.84,0,0,1,2.08-5.42c.12-.27-.28-.51-.4-.23a48.42,48.42,0,0,0-1.79,4.5q-.51-5.59-.94-11.18c0-.3-.48-.3-.46,0q.44,5.86,1,11.71a36.12,36.12,0,0,1-2.66-6.55.23.23,0,0,0-.45.12,37.37,37.37,0,0,0,3.11,7.41.19.19,0,0,0,.11.09q.39,4.29.86,8.57c-1.37-2.13-2.74-4.25-4.06-6.41a.23.23,0,0,0-.4.24c1.49,2.42,3,4.81,4.57,7.2q.41,3.75.85,7.48a9.83,9.83,0,0,1-2.14-2.71,23.64,23.64,0,0,0-2.4-2.88.23.23,0,0,0-.33.32,25.14,25.14,0,0,1,3,3.77,5.65,5.65,0,0,0,2,2.09l.09.74c0,.29.5.3.46,0s-.05-.43-.07-.65a.31.31,0,0,0,.08-.11,33.68,33.68,0,0,1,2.71-5.36C21,136.8,20.62,136.57,20.46,136.82Z"/><path class="cls-76" d="M16.64,136.22a13.28,13.28,0,0,1-3.56-2c-1.72-1.75-1.49-4.71-3-6.66s-3.95-2.36-5.41-4.11c-.81-1-1.45-2.4-2.71-2.47S-.18,122.46,0,123.74a10.1,10.1,0,0,0,1.8,3.43,12.64,12.64,0,0,1,1.92,6.18c.11,2.56-.45,5.48,1.25,7.4,1,1.08,2.43,1.55,3.48,2.54,2.19,2.05,2,5.68,3.83,8a5.73,5.73,0,0,0,7,1.45C25.57,149.36,21.5,138.79,16.64,136.22Z"/><path class="cls-77" d="M19.43,150.44q-1.68-2.34-3.31-4.71c-.06-1.32-.13-2.65-.21-4a9.44,9.44,0,0,0-.28-3,.22.22,0,0,0-.26-.11l-.07,0c-.09,0-.19.12-.18.22V139a.25.25,0,0,0,.29.21.89.89,0,0,0-.09.75l.06.9.09,1.57c0,.86.09,1.71.14,2.57q-3.31-4.83-6.43-9.78c0-1.84,0-3.68-.13-5.51,0-.3-.48-.31-.47,0,.09,1.58.13,3.17.13,4.76Q6,130.12,3.44,125.66a.23.23,0,0,0-.4.23q2.49,4.35,5.14,8.59l-2.52-1.87c-.24-.18-.47.22-.24.4l3.42,2.53h0q3,4.77,6.18,9.4a33.46,33.46,0,0,0-4.2-2.29c-.27-.12-.51.28-.24.4A33.79,33.79,0,0,1,15.72,146q1.63,2.37,3.31,4.71C19.2,150.91,19.61,150.68,19.43,150.44Z"/><path class="cls-78" d="M21.73,132.41A9.25,9.25,0,0,1,25.36,125a7.75,7.75,0,0,0,1.74-1.48c.72-1,.68-2.34,1-3.53s1.44-2.42,2.6-2,1.23,2.14.69,3.28-1.46,2.19-1.47,3.45c0,.84.41,1.64.38,2.48-.06,2-2.45,3.34-2.35,5.31.08,1.72,2,2.9,2.13,4.62.09,1.53-1.32,2.72-1.77,4.18s.16,3.21.12,4.82a11.49,11.49,0,0,1-1.64,4.82,5.8,5.8,0,0,1-1.34,1.9,4,4,0,0,1-1.81.77c-5.56,1-7.37-4.74-7.06-9.14a8.24,8.24,0,0,1,2-4.62C20.58,137.1,21.79,135.94,21.73,132.41Z"/><path class="cls-76" d="M28.51,137.29c.25-.17,0-.56-.26-.38a23.16,23.16,0,0,0-4.11,3.67q1.32-5.36,2.79-10.68h0a23.68,23.68,0,0,1,2.25-2.23c.23-.19,0-.58-.26-.38-.61.53-1.2,1.08-1.75,1.66q.45-1.64.93-3.27c.08-.28-.38-.37-.46-.08-.33,1.15-.66,2.3-1,3.46a19.69,19.69,0,0,1-.94-2.22.23.23,0,0,0-.44.16,22.69,22.69,0,0,0,1.2,2.72q-1.49,5.35-2.82,10.75c-.14-1.85-.29-3.69-.44-5.53a.23.23,0,0,0-.46,0c.18,2.23.35,4.46.53,6.69a.18.18,0,0,0,.05.12q-.64,2.67-1.26,5.35a48.12,48.12,0,0,0-1.38-5.31.23.23,0,0,0-.44.16,45.37,45.37,0,0,1,1.56,6.28c-.26,1.15-.51,2.3-.76,3.44a.23.23,0,0,0,.46.09c.23-1.09.47-2.17.71-3.25l4.17-2.83a.23.23,0,0,0-.26-.38l-3.76,2.55q.72-3.15,1.48-6.29A23.27,23.27,0,0,1,28.51,137.29Z"/><rect class="cls-73" x="29.05" y="141.31" width="31.8" height="4.71"/><path class="cls-73" d="M31.72,163.39h0A1.38,1.38,0,0,1,30.35,162V143.06H33.1V162A1.38,1.38,0,0,1,31.72,163.39Z"/><path class="cls-73" d="M58.17,163.39h0A1.38,1.38,0,0,1,56.79,162V143.06h2.75V162A1.37,1.37,0,0,1,58.17,163.39Z"/><path class="cls-70" d="M28.6,128.5c-.38,2.65-.91,5.37,0,7.91.08.19.27.77.49.78s.76-.75.95-.94A16.53,16.53,0,0,1,36.94,132c.24-.07.52-.18.6-.41a.65.65,0,0,0,0-.34,13.13,13.13,0,0,0-2.63-5.41,11.26,11.26,0,0,0-4-3.91c-.56-.27-1.89-.94-2.33-.22s0,1.55.12,2.19a9.19,9.19,0,0,1,.1,2.62C28.78,127.19,28.7,127.84,28.6,128.5Z"/><path class="cls-70" d="M46.39,132.05a17.81,17.81,0,0,0,6.51,0c.07,0,.16,0,.19-.1a.23.23,0,0,0,0-.2c-.29-1.19-1.53-1.92-2-3a5.28,5.28,0,0,1-.38-1.48c-.21-1.25-.47-2.5-.78-3.74a1.84,1.84,0,0,0-.57-1.09,1.3,1.3,0,0,0-.75-.23,4.26,4.26,0,0,0-2.48,1,17.63,17.63,0,0,0-2.56,2.08,16.9,16.9,0,0,0-1.83,2.36,12.74,12.74,0,0,0-1.28,2.2c-.11.26-.47,1-.37,1.24s.54.15.85.13C42.77,131.08,44.58,131.71,46.39,132.05Z"/><path class="cls-70" d="M29.15,111.71a5.89,5.89,0,0,0-1.85,1.54,4.69,4.69,0,0,0-.54,3,15.54,15.54,0,0,0,2.46,7.29.39.39,0,0,0,.19.19c.18.06.34-.15.44-.32A6.35,6.35,0,0,1,36,120.19l2.37,4.45a.51.51,0,0,0,.19.24.47.47,0,0,0,.29,0,12,12,0,0,0,5.13-2,34.72,34.72,0,0,0,7.46-5.28,1.13,1.13,0,0,0,.36-.56,1.3,1.3,0,0,0-.11-.64c-.54-1.57-.74-3.25-1.22-4.85a6.54,6.54,0,0,0-2.82-4A7.34,7.34,0,0,0,45.8,107c-.67-.15-1.36-.28-2-.38a3.56,3.56,0,0,0-1.08,0,4.6,4.6,0,0,0-1,.44,6.06,6.06,0,0,1-3.38.56c-.86-.1-2.28-1.08-3-.73a7.34,7.34,0,0,0-1.4,1.28c-.48.43-1,.85-1.48,1.26A37,37,0,0,1,29.15,111.71Z"/><path class="cls-79" d="M45.84,100.25a5.27,5.27,0,0,0,.07,1.58c0,1.45-1.58,2.51-1.67,4,0,.42,0,.92-.28,1.19a.89.89,0,0,1-.56.17,4.71,4.71,0,0,0-.53,0,.25.25,0,0,0-.17.08h0a.3.3,0,0,0-.06.2c0,1.26-.18,2.52-.33,3.77-.07.61-.15,1.23-.23,1.84a1.16,1.16,0,0,1-.14.49.42.42,0,0,1-.43.22c-.2,0-.29-.26-.38-.45a5.62,5.62,0,0,0-1.72-1.85,18.26,18.26,0,0,1-2.76-2.43,4.78,4.78,0,0,1-1.23-3.37,12.34,12.34,0,0,1,.48-1.88,9.07,9.07,0,0,0,.33-1.86,2.45,2.45,0,0,0,0-.27,1.5,1.5,0,0,0,0-.37,2.53,2.53,0,0,0-.28-.6,3,3,0,0,1-.44-1.24A1.24,1.24,0,0,1,36,98.31c.81-.47,1.54,1.06,2.29.14.11-.13.17-.29.28-.41.29-.35.88-.45,1-.89.06-.26-.1-.52-.12-.78a1,1,0,0,1,.55-.85,2.55,2.55,0,0,1,1-.25,18.59,18.59,0,0,1,4.77.2.48.48,0,0,1,.2.07c.17.12.11.37.07.57-.24,1.15.58,2.41.11,3.49C46.06,99.82,45.92,100,45.84,100.25Z"/><path class="cls-80" d="M42.7,107.26h0a.3.3,0,0,0-.06.2c0,1.26-.18,2.52-.33,3.77-.07.61-.15,1.23-.23,1.84a1.16,1.16,0,0,1-.14.49.42.42,0,0,1-.43.22c-.2,0-.29-.26-.38-.45a5.62,5.62,0,0,0-1.72-1.85,18.26,18.26,0,0,1-2.76-2.43,4.78,4.78,0,0,1-1.23-3.37,12.34,12.34,0,0,1,.48-1.88,9.07,9.07,0,0,0,.33-1.86,2.45,2.45,0,0,0,0-.27,1.73,1.73,0,0,1,.45.42,7.92,7.92,0,0,1,.8,2.18.94.94,0,0,0,.06.15,4,4,0,0,0,1.76,1.79,8.77,8.77,0,0,0,2.56.85A8.15,8.15,0,0,1,42.7,107.26Z"/><path class="cls-81" d="M37.54,99c.13.28.15.59.27.88s.41.54.7.45.37-.42.38-.7,0-.47,0-.71a.83.83,0,0,1,.34-.59c.3-.17.72,0,1-.27a.87.87,0,0,0,.11-.9,1.13,1.13,0,0,1,0-.92,1,1,0,0,1,.92-.27c1.67.11,3.4.6,5,.07a.65.65,0,0,0,.32-.19.73.73,0,0,0,.09-.44,2.49,2.49,0,0,0-.17-1c-.07-.14-.17-.27-.23-.41a6.68,6.68,0,0,1-.2-1.2,2.17,2.17,0,0,0-2-1.45A3,3,0,0,1,43,91.09a3,3,0,0,1-.53-.41,2.88,2.88,0,0,0-3.41-.12A1.46,1.46,0,0,1,38,91a2.9,2.9,0,0,0-1.78.89,2.38,2.38,0,0,0-.6,1.87,2,2,0,0,1,.05.72,2.61,2.61,0,0,1-.39.66A2.71,2.71,0,0,0,35,96.34a4.51,4.51,0,0,0,0,1.47c0,.15.09.28.12.43a2.79,2.79,0,0,1-.08.86,1.61,1.61,0,0,0,0,.87.64.64,0,0,0,.66.46c0-.19-.1-.37-.14-.55a1.46,1.46,0,0,1,.08-1.16C36.11,98,37.23,98.34,37.54,99Z"/><path class="cls-80" d="M49.51,159.51a2.7,2.7,0,0,0,2,.53,3.56,3.56,0,0,0,1.91-1,1,1,0,0,0,.2-.25.86.86,0,0,0,.06-.23c.1-.61.21-1.21.31-1.82-.54,0-1.08.05-1.63.06h-.78a2.52,2.52,0,0,0-.82,0A19.27,19.27,0,0,0,49.51,159.51Z"/><path class="cls-7" d="M48.89,160.84c0,.52,0,1,0,1.57a.36.36,0,0,0,0,.18.35.35,0,0,0,.23.14,4.57,4.57,0,0,0,1.61.05,8.13,8.13,0,0,1,3.53.5c.34.14.66.3,1,.43A10.4,10.4,0,0,0,60,164l2-.18a.71.71,0,0,0,.53-.19.56.56,0,0,0-.08-.67,3,3,0,0,0-1.8-.82,11.33,11.33,0,0,1-1.16-.4,6.4,6.4,0,0,1-1.13-.51c-1.19-.74-1.82-2.15-3-3a1.91,1.91,0,0,0-.58-.31,1.79,1.79,0,0,0-1.38.28c-.42.25-.77.6-1.16.87a2,2,0,0,1-1.53.44,3.31,3.31,0,0,1-1-.56C48.82,158.35,48.87,160.31,48.89,160.84Z"/><path class="cls-80" d="M39,159.6a.5.5,0,0,0,0,.21.37.37,0,0,0,.31.18,3.48,3.48,0,0,0,1.28-.11l2.46-.51a7.71,7.71,0,0,1-.12-1.79c0-.08,0-.18-.07-.23a.17.17,0,0,0-.12,0L41,157.23a2.43,2.43,0,0,0-1.2.06c-.31.15-.38.45-.45.76A8.49,8.49,0,0,0,39,159.6Z"/><path class="cls-7" d="M38.28,161.33a4.41,4.41,0,0,0,.13,2.46.52.52,0,0,0,.16.32.73.73,0,0,0,.32.12c.46.12.75.6,1.2.74a1.84,1.84,0,0,0,.52.05l5.75,0a1,1,0,0,0,.43-.06.68.68,0,0,0,.24-.88,2.49,2.49,0,0,0-.64-.77,7,7,0,0,1-2.07-4.16.65.65,0,0,0-.06-.24c-.11-.21-.4-.23-.64-.22l-2.77.1a1.21,1.21,0,0,0-.43.07c-.33.14-.43.5-.71.68s-.53-.09-.82,0-.17.48-.22.73A9.72,9.72,0,0,1,38.28,161.33Z"/><path class="cls-75" d="M64.21,140.18a81.59,81.59,0,0,1-5.58,10.89c-1.14,2-1.77,4.16-3,6.08a1.16,1.16,0,0,1-.48.5,1.17,1.17,0,0,1-.53,0c-1.33-.09-3.06-.38-4.5-.53a.49.49,0,0,1-.41-.66q1.61-4,3.41-7.92c.48-1,1-2.08,1.46-3.11l2.78-5.89h-.11a10.1,10.1,0,0,0-3.36,1.05,19.15,19.15,0,0,1-11.44,1,10.54,10.54,0,0,1-.51-2.07,6.19,6.19,0,0,0-.81-2.15,6.75,6.75,0,0,1-.61-3.07,3.74,3.74,0,0,1,.67-2.14,4.14,4.14,0,0,1,3.17-1.34,23,23,0,0,1,5.8.88c.68.15,1.36.28,2,.37a11.09,11.09,0,0,0,1.73.11c.87,0,1.73-.14,2.6-.18a17.38,17.38,0,0,1,3.22.16c1.82.23,3.82.79,4.76,2.38S64.94,138.37,64.21,140.18Z"/><path class="cls-75" d="M57.34,139.59h-.05a10.1,10.1,0,0,0-3.36,1.05,19.15,19.15,0,0,1-11.44,1,10.54,10.54,0,0,1-.51-2.07,6.19,6.19,0,0,0-.81-2.15,6.75,6.75,0,0,1-.61-3.07,3.74,3.74,0,0,1,.67-2.14,4.14,4.14,0,0,1,3.17-1.34,23,23,0,0,1,5.8.88c.68.15,1.36.28,2,.37a1.67,1.67,0,0,1-.08.7c-.91,2.17-.37,7.28,4,6,.45-.14,1.08-.29,1.3.13A.63.63,0,0,1,57.34,139.59Z"/><path class="cls-75" d="M29.15,138.21a14.71,14.71,0,0,0,.47,2.73,4.77,4.77,0,0,0,1.47,2.3,6.37,6.37,0,0,0,1.15.69,9.28,9.28,0,0,0,4.59,1.44,14.16,14.16,0,0,0,.94-5.86,26.36,26.36,0,0,1,.35-6,3.7,3.7,0,0,0,.17-1.31,1,1,0,0,0-.81-.94,1.49,1.49,0,0,0-.51.06A14.69,14.69,0,0,0,29.68,136,2.47,2.47,0,0,0,29.15,138.21Z"/><path class="cls-75" d="M36.6,133.12c-.23.86-.46,1.72-.61,2.6-.58,3.38,0,6.84.74,10.19.61,2.94,1.25,5.86,1.9,8.79.14.66.29,1.32.44,2,.09.43-.17.9.21,1.12a3.73,3.73,0,0,0,1.06.16c.78,0,1.56.12,2.34.18a1.83,1.83,0,0,0,.87-.08,1.21,1.21,0,0,0,.62-.94,4.13,4.13,0,0,0-.08-1.16,32.84,32.84,0,0,1-.43-4.2c-.08-2.08,0-4.16.14-6.24a80.58,80.58,0,0,1,.76-8.5,14.55,14.55,0,0,0,.3-2.54,4.06,4.06,0,0,0-.7-2.42,4.41,4.41,0,0,0-3.89-1.47C38.4,130.7,37.1,131.23,36.6,133.12Z"/><path class="cls-80" d="M57.35,130c0,.1-.13.17-.22.23a6.37,6.37,0,0,1-.85.36l-2,.73a3.14,3.14,0,0,1-1.16.25,1.45,1.45,0,0,1-.35-.07,1.83,1.83,0,0,1-.69-.45,5.78,5.78,0,0,1-1.5-2.36,4.42,4.42,0,0,1-.15-.48c-.11-.47-.16-1-.25-1.44a11.19,11.19,0,0,1-.57-3.16,2.77,2.77,0,0,1,.1-.5,1.33,1.33,0,0,1,.21-.39,2,2,0,0,1,.92-.57,13.31,13.31,0,0,1,3-.88c.14.51.18,1.1.31,1.63a17.24,17.24,0,0,1,.24,2.15,9.13,9.13,0,0,0,.28,1.4,5.29,5.29,0,0,0,2,3.06C56.81,129.61,57.4,129.81,57.35,130Z"/><path class="cls-79" d="M57.35,130c0,.1-.13.17-.22.23a6.37,6.37,0,0,1-.85.36l-2,.73a2.35,2.35,0,0,1-1.51.18,1.83,1.83,0,0,1-.69-.45,5.78,5.78,0,0,1-1.5-2.36,1.85,1.85,0,0,1,.36-.76,4.34,4.34,0,0,1,1.49-1.31,3.31,3.31,0,0,1,1.36-.24,5.34,5.34,0,0,1,.89.07,5.29,5.29,0,0,0,2,3.06C56.81,129.61,57.4,129.81,57.35,130Z"/><path class="cls-80" d="M55.05,129.73a.24.24,0,0,1,.13,0c.11,0,.15.14.16.25,0,.35.09.71.14,1.06a5.39,5.39,0,0,1,.06,1.06,1.69,1.69,0,0,1-.4,1c-.06.06-.27.35-.36.36s-.14-.3-.26-.4a2.62,2.62,0,0,1-.67-.74,4.78,4.78,0,0,0-.36-.8c-.16-.21-.43-.37-.22-.65a2.58,2.58,0,0,1,.84-.52Z"/><path class="cls-79" d="M52.26,132a1.25,1.25,0,0,0,.36.64,4.38,4.38,0,0,0,1.46,1.29.55.55,0,0,0,.28.07c.28,0,.43-.34.42-.62a3.47,3.47,0,0,0-.71-1.52.64.64,0,0,1-.1-.24,1.63,1.63,0,0,1,.08-.61c0-.2,0-.46-.22-.51a.45.45,0,0,0-.33.09C53,130.83,52.2,131.37,52.26,132Z"/><path class="cls-79" d="M55.77,129.26c.22-.13.52-.25.69-.07s.11.23.2.31.54,0,.81.05.38.3.53.5a1.94,1.94,0,0,0,.9.7.4.4,0,0,1,.16.08.35.35,0,0,1,.07.25c0,.46,0,.92.07,1.39a.67.67,0,0,1,0,.24.55.55,0,0,1-.15.19,2.69,2.69,0,0,1-1.88.71c-.3,0-.64-.11-.72-.39l-.47-.08h-.09a.16.16,0,0,0-.07.12,1.7,1.7,0,0,1-.57.85c-.13.1-.33.17-.45,0a.33.33,0,0,1-.06-.22,6.79,6.79,0,0,1,.3-1.53,3.33,3.33,0,0,0-.2-1.9c-.12-.3-.28-.45,0-.68A9.18,9.18,0,0,1,55.77,129.26Z"/><path class="cls-82" d="M54.48,116.72l1.46-2.49a.36.36,0,0,1,.32-.18h2.56a.37.37,0,0,1,.32.54l-2.28,4.25a.36.36,0,0,1-.34.2L54.25,119a.36.36,0,0,1-.34-.48l.54-1.67Z"/><path class="cls-79" d="M51.43,117c.27-.22.57-.4.83-.62s.6-.53,1-.44.54.56.88.76a1.41,1.41,0,0,0,.79.09l1.66-.13a.75.75,0,0,1,.47,0,.54.54,0,0,1,.16.7,1,1,0,0,1-.64.43,6.83,6.83,0,0,1-.79.11,4.62,4.62,0,0,0-1.66.64l2.38-.14a1.42,1.42,0,0,1,.91.15c.26.17.36.62.1.79a.66.66,0,0,1-.27.09l-2.29.46,1.9-.11c.08,0,.17,0,.21.06s0,.2-.12.26a4.39,4.39,0,0,1-2,.8.62.62,0,0,1-.12.61,2.91,2.91,0,0,1-.48.45c-.26.25-.46.57-.74.79a2.76,2.76,0,0,1-1.64.46,6.53,6.53,0,0,0-1.71.16,5.48,5.48,0,0,1-1.1.37c-.24-.58-.46-1.19-.66-1.79a4,4,0,0,1-.4-1.64c.09-.41.62-.63.9-.88a13.36,13.36,0,0,0,1.19-1.19A10.14,10.14,0,0,1,51.43,117Z"/><path class="cls-79" d="M49.63,123.59a1.37,1.37,0,0,0-.2.13,3.29,3.29,0,0,0-.39.34l-2.83,2.78a33.63,33.63,0,0,1-3.92,3.44,3.63,3.63,0,0,1-.71.41,4.51,4.51,0,0,1-1.1.17,10.6,10.6,0,0,0-2.83.61,2.88,2.88,0,0,1-1.43.3,1.74,1.74,0,0,1-.5-.17,3.68,3.68,0,0,1-.67-.48c-.34-.29-.68-.58-1-.88a19.75,19.75,0,0,1-3.2-4.25,11.7,11.7,0,0,1-1.26-2.26c-.23-.74.51-1.41,1-1.86a10.79,10.79,0,0,1,4-1.94,1.27,1.27,0,0,1,1.14,0,1.2,1.2,0,0,1,.3.4l2.49,4.44s0,.09.1.11.12,0,.17,0a45.41,45.41,0,0,0,9.38-4.93C48.57,121,49.73,123.55,49.63,123.59Z"/><path class="cls-45" d="M183.26,173.54c0,2-10.93,3.67-24.42,3.67s-24.42-1.64-24.42-3.67,10.93-3.66,24.42-3.66S183.26,171.52,183.26,173.54Z"/><path class="cls-83" d="M163.73,146.86a3.24,3.24,0,1,1-3.24-3.24A3.24,3.24,0,0,1,163.73,146.86Z"/><path class="cls-84" d="M172.36,144.66a5.45,5.45,0,1,1-5.44-5.44A5.45,5.45,0,0,1,172.36,144.66Z"/><polygon class="cls-85" points="183.2 150.1 166.45 150.1 174.83 129.49 176.87 134.52 183.2 150.1"/><polygon class="cls-86" points="183.2 150.1 174.61 150.1 176.87 134.52 183.2 150.1"/><rect class="cls-87" x="178.38" y="134.18" width="26.39" height="15.92"/><rect class="cls-88" x="196.06" y="134.18" width="8.71" height="15.92"/><polygon class="cls-89" points="178.38 136.04 178.38 140.95 179.07 143.52 191.78 140.1 190.19 134.19 185.26 134.19 178.38 136.04"/><path class="cls-90" d="M166.45,160.32a2.63,2.63,0,1,1-2.63-2.62A2.62,2.62,0,0,1,166.45,160.32Z"/><path class="cls-90" d="M193.93,160.32a2.62,2.62,0,1,1-2.62-2.62A2.62,2.62,0,0,1,193.93,160.32Z"/><path class="cls-90" d="M181.36,160.32a2.63,2.63,0,1,1-2.63-2.62A2.62,2.62,0,0,1,181.36,160.32Z"/><path class="cls-90" d="M208.84,160.32a2.63,2.63,0,1,1-2.62-2.62A2.62,2.62,0,0,1,208.84,160.32Z"/><path class="cls-67" d="M218.61,112.92a.88.88,0,0,0-.28-1.22.87.87,0,0,0-1.22.27l-2.7,4.26H199.73a.89.89,0,0,0,0,1.77h6.85l-1.05,8h-7.08a.89.89,0,1,0,0,1.78h6.85l-1.19,9.08H197a.89.89,0,1,0,0,1.77h6.85l-.9,6.87h-7.09a.89.89,0,0,0,0,1.77h6.86l-.37,2.83h-7.09a.89.89,0,0,0,0,1.77h14.38l.64,4.94H196.15a.89.89,0,0,0,0,1.77h15.16a.89.89,0,0,0,.89-1l-.85-6.59,4.4-33.56ZM208.37,118h5.51l-1,8h-5.52Zm-1.28,9.78h5.51l-1.19,9.08H205.9Zm-1.42,10.85h5.51l-.9,6.87h-5.51Zm-1.14,8.64h5.52l-.37,2.83h-5.52Z"/><path class="cls-91" d="M203.44,112.92a.88.88,0,0,0-1.49-1l-2.75,4.33-49.45,7.33a.88.88,0,0,0-.75,1l3.47,26.48a.89.89,0,0,0,.88.77h41.16l.63,4.94H156.78a.89.89,0,1,0,0,1.77h39.37a.89.89,0,0,0,.67-.3.86.86,0,0,0,.21-.7l-.84-6.59,4.4-33.56Zm-23.25,8,8.28-1.23-.53,6.76-7.9.34Zm-29.32,4.34,7.86-1.16.28,3.58-7.78.33Zm1.52,11.61-.93-7.1,7.69-.32.58,7.42Zm.23,1.77h7.25l.48,6.11-6.95-.15Zm1.5,11.47-.48-3.73,6.85.14.29,3.59Zm6.37-26.27,8-1.19.12,4.62-7.82.33Zm.43,5.53,7.74-.33.21,7.83h-7.36Zm.73,9.27h7.26l.17,6.29-6.94-.15Zm.91,11.47-.28-3.55,6.85.15.08,3.4Zm15.09,0H171l-.09-3.36,6.83.15Zm.13-5-6.93-.15-.16-6.33H178Zm.22-8.25h-7.36l-.21-7.9,7.78-.33Zm.26-10-7.87.34-.13-4.81,8.15-1.21Zm7.82,23.25h-6.66l.09-3.18,6.81.15Zm.38-4.8-6.91-.15.17-6.52H187Zm.66-8.44h-7.35l.22-8.3,7.81-.33Zm7.39,13.24h-6.65l.24-3,6.79.14Zm.61-4.62-6.88-.15.52-6.7H196Zm1.13-8.62H188.9l.69-8.71,7.85-.33ZM197.67,126l-7.94.34.54-7,8.43-1.25Z"/><path class="cls-90" d="M220.22,113.33H199.73a.89.89,0,0,1,0-1.77h20.49a.89.89,0,1,1,0,1.77Z"/><path class="cls-52" d="M155,102.24a1.38,1.38,0,0,1-1.18-2.08s.18-.31,1.45-2.31c.73-1.17.59-4.1.4-5.34a1.39,1.39,0,0,1,1.16-1.57,1.38,1.38,0,0,1,1.56,1.16c.08.49.68,4.87-.8,7.22-1.18,1.87-1.39,2.22-1.4,2.25A1.39,1.39,0,0,1,155,102.24Z"/><path class="cls-52" d="M164.85,171.37l-1.7.56c-.22-.7-5.81-17.38-6.75-23.57-.4-2.64-.64-7.19-.78-11.59,0-.06,0-.12,0-.17-.18-5.83.07-11.3.07-11.7a2.31,2.31,0,0,1,2.31-2.32h0c1.28,0,3.23.89,3.24,2.16,0,.09.16,5,0,11.22,0,.06,0,.11,0,.17-.14,4.36-1.26,8.52-.53,11C161.86,151,164.79,171.2,164.85,171.37Z"/><path class="cls-52" d="M156.13,171.32l-1.78.26c0-.18-4.26-17.16-5.16-23.17-.37-2.47-.71-6.65-1-10.8v-.12c-.39-6.09-.64-12.08-.66-12.5a2.32,2.32,0,0,1,2.23-2.41c1.28,0,3.31.81,3.43,2.08.26,2.83.57,6.15.72,12.25V137c.11,5.09-.49,8.36-.15,10.75C155.26,158.33,156.11,171.16,156.13,171.32Z"/><path class="cls-52" d="M167.69,110.54c-.71-1-2.48-7.83-3.76-14a2,2,0,0,0-2-1.32,1.38,1.38,0,0,0-1.07,1.63c.88,4.16,3.06,14,4.44,15.55,2.81,3.13,12.43,4.91,14,5.32a6.69,6.69,0,0,1,2,2.12,1.37,1.37,0,0,0,1.2.72,4.14,4.14,0,0,0,1.21-.2c.67-.35.53-1,.17-1.68-.65-1.22-2.8-2.34-3.64-2.67C178.26,115.29,169.29,110.68,167.69,110.54Z"/><path class="cls-52" d="M149,86.14a7.11,7.11,0,1,0,7.1-7.11A7.1,7.1,0,0,0,149,86.14Z"/><path class="cls-70" d="M163.16,96.58a1.36,1.36,0,0,1,0,.4c-.11.6-.22,1.22-.34,1.85a.7.7,0,0,1,0,.14c-.06.34-.12.67-.19,1a.3.3,0,0,0,0,.1c-.14.73-.29,1.48-.45,2.24l0,.15c-.06.34-.13.67-.2,1,0,0,0,.06,0,.09-.16.75-.29,1.49-.43,2.26l0,.13-.18,1a.29.29,0,0,0,0,.09c-.13.76-.26,1.52-.37,2.28,0,0,0,.08,0,.11-.05.35-.11.69-.14,1,0,0,0,0,0,.08-.1.77-.18,1.53-.24,2.29,0,0,0,.07,0,.1,0,.36-.06.69-.07,1a.19.19,0,0,0,0,.08q-.08,1.19-.06,2.31v.07q0,.74.06,1.44H146.92s0-.53.1-1.44c0,0,0-.06,0-.09,0-.62.09-1.4.17-2.29a.66.66,0,0,1,0-.14c0-.32,0-.64.07-1,0,0,0-.06,0-.09.06-.72.11-1.49.19-2.3a.66.66,0,0,0,0-.14h0c0-.31.06-.64.09-1v-.08c.07-.75.14-1.53.23-2.31,0,0,0-.09,0-.14,0-.32.07-.65.1-1,0,0,0-.06,0-.08.08-.78.17-1.55.26-2.31,0,0,0-.09,0-.14l.12-1a.17.17,0,0,1,0-.07c.1-.81.21-1.59.32-2.32a.77.77,0,0,0,0-.15c.06-.33.11-.66.16-1a.17.17,0,0,0,0-.07c.15-.86.31-1.65.47-2.32l0-.16,0-.11a1.57,1.57,0,0,1,1.52-1.17h10.68a1.58,1.58,0,0,1,1.56,1.33S163.16,96.55,163.16,96.58Z"/><path class="cls-92" d="M160.35,114a.19.19,0,0,0,0,.08q-.08,1.19-.06,2.31a45.61,45.61,0,0,0-13.25,0c0-.62.09-1.4.17-2.29a.66.66,0,0,1,0-.14A47.79,47.79,0,0,1,160.35,114Z"/><path class="cls-92" d="M160.69,110.52s0,0,0,.08c-.1.77-.18,1.53-.24,2.29a45.91,45.91,0,0,0-13.14,0c.06-.72.11-1.49.19-2.3a.66.66,0,0,0,0-.14h0A48.23,48.23,0,0,1,160.69,110.52Z"/><path class="cls-92" d="M161.23,107a.29.29,0,0,0,0,.09c-.13.76-.26,1.52-.37,2.28a46,46,0,0,0-13.26,0c.07-.75.14-1.53.23-2.31,0,0,0-.09,0-.14A49.36,49.36,0,0,1,161.23,107Z"/><path class="cls-92" d="M161.88,103.5s0,.06,0,.09c-.16.75-.29,1.49-.43,2.26a47.4,47.4,0,0,0-13.51.05c.08-.78.17-1.55.26-2.31,0,0,0-.09,0-.14A49.67,49.67,0,0,1,161.88,103.5Z"/><path class="cls-92" d="M162.58,100a.3.3,0,0,0,0,.1c-.14.73-.29,1.48-.45,2.24a48.86,48.86,0,0,0-13.77.08c.1-.81.21-1.59.32-2.32a.77.77,0,0,0,0-.15A51,51,0,0,1,162.58,100Z"/><path class="cls-92" d="M163.16,96.58a1.36,1.36,0,0,1,0,.4c-.11.6-.22,1.22-.34,1.85a49,49,0,0,0-14,.07c.15-.86.31-1.65.47-2.32l0-.16a51.35,51.35,0,0,1,13.79,0S163.16,96.55,163.16,96.58Z"/><path class="cls-52" d="M150.83,95.31a1.77,1.77,0,0,0-2,1,98.67,98.67,0,0,1-4.62,11.3,26.14,26.14,0,0,1-9.79-6.94,3.49,3.49,0,0,1,1.33-1.94,1.39,1.39,0,0,0,.06-1c0-1.09.53-2.48.11-2.28s-.48.87-.57,1.61a2.46,2.46,0,0,0-.27-.17,1.38,1.38,0,0,0-1.83.67,10.64,10.64,0,0,0-.73,3.14v.18a.53.53,0,0,0,0,.13.61.61,0,0,0,0,.13l0,.14a.47.47,0,0,0,0,.1l.06.14a.08.08,0,0,1,0,0c.18.29,4.56,7.21,11.49,9.37a1.8,1.8,0,0,0,.58.11c1.12,0,2-1.45,4.36-7.32,1.31-3.28,2.51-6.65,2.52-6.68A1.37,1.37,0,0,0,150.83,95.31Z"/><path class="cls-69" d="M161.48,134.71s3.16-10.63-1.14-16.78H146.92a137.6,137.6,0,0,0,.73,18.36Z"/><path class="cls-93" d="M163.78,87.72c-.73-6-.37-9.53-5.49-9.91-.59,0-1.45,0-1.8,0a7.12,7.12,0,0,0-6.22,1.56c-2,1.64-1.08,3.35,1.28,3.73-1.29,3.1-1.69,7,0,10.16,4.13,7.77-4.21,6.14-1.47,12.08s15.83,4.74,17.19-5.36C168.07,94,164.52,93.68,163.78,87.72Z"/><path class="cls-94" d="M134.53,100.68a.35.35,0,1,1-.69,0,.35.35,0,0,1,.69,0Z"/><path class="cls-94" d="M134,101a.34.34,0,0,1-.68,0,.34.34,0,0,1,.68,0Z"/><path class="cls-94" d="M133.5,101.47a.35.35,0,0,1-.35.34.34.34,0,0,1,0-.68A.35.35,0,0,1,133.5,101.47Z"/><path class="cls-94" d="M133.37,102.09a.34.34,0,1,1-.34-.34A.35.35,0,0,1,133.37,102.09Z"/><path class="cls-95" d="M148.69,136.21c-.18-1-1.23-13.56-.81-18.28l.3,0c-.42,4.7.62,17.24.81,18.19Z"/><path class="cls-52" d="M149.65,84.46v2.29a.59.59,0,0,0,.84.53,1.87,1.87,0,0,0,1-1.68,1.9,1.9,0,0,0-1-1.68A.59.59,0,0,0,149.65,84.46Z"/><path class="cls-95" d="M150.59,91a2.12,2.12,0,1,1,2.12-2.12A2.12,2.12,0,0,1,150.59,91Zm0-3.89a1.77,1.77,0,1,0,1.77,1.77A1.77,1.77,0,0,0,150.59,87.07Z"/><path class="cls-96" d="M154.26,170.85a.73.73,0,0,0-.35.15,11.62,11.62,0,0,1-3.95,1.79c-1.18.17-1.24.75.42.75s2.87-.14,3.61-.12,1,.12,2.84.12c1.4,0,.49-1.78,0-2.6a.76.76,0,0,0-.76-.35Z"/><path class="cls-96" d="M162.8,170.85a.66.66,0,0,0-.34.15,6.79,6.79,0,0,1-2.81,1.79c-1.11.17-1.17.75.4.75s1.79-.14,2.49-.12,1,.12,2.68.12c1.32,0,.46-1.78,0-2.6a.71.71,0,0,0-.72-.35Z"/><path class="cls-1" d="M183.87,118.72c-.65-1.22-2.8-2.34-3.64-2.67-2-.76-10.94-5.37-12.54-5.51a32.59,32.59,0,0,1-2-6.26,10.54,10.54,0,0,0,1.56-4.31c.8-6-2.75-6.29-3.49-12.25s-.37-9.53-5.49-9.91c-.59,0-1.45,0-1.8,0a7.12,7.12,0,0,0-6.22,1.56c-1.42,1.18-1.34,2.4-.31,3.13a7.09,7.09,0,0,0-1,3.65,7.33,7.33,0,0,0,.11,1.24,2.05,2.05,0,0,0-.59,1.46A2.12,2.12,0,0,0,150.59,91h.11a8.87,8.87,0,0,0,.85,2.3,13.53,13.53,0,0,1,.83,1.89h-1.47a1.56,1.56,0,0,0-.57.11,1.84,1.84,0,0,0-1.52,1.07,98.67,98.67,0,0,1-4.62,11.3,26.47,26.47,0,0,1-9.7-6.82.21.21,0,0,0,0-.12.32.32,0,0,0-.07-.19,3.68,3.68,0,0,1,1.28-1.75,1.39,1.39,0,0,0,.06-1c0-1.09.53-2.48.11-2.28s-.48.87-.57,1.61a2.46,2.46,0,0,0-.27-.17,1.38,1.38,0,0,0-1.83.67,10.64,10.64,0,0,0-.73,3.14v.18a.53.53,0,0,0,0,.13.61.61,0,0,0,0,.13l0,.14a.47.47,0,0,0,0,.1l.06.14a.08.08,0,0,1,0,0s.07.1.14.22a.32.32,0,0,0-.16.28.35.35,0,0,0,.34.35.33.33,0,0,0,.2-.08c1.37,1.92,5.32,6.84,11,8.6a1.8,1.8,0,0,0,.58.11c.88,0,1.63-.91,3-4.12h0s0,.09,0,.14c-.09.78-.16,1.56-.23,2.31v.08c0,.33-.06.66-.09,1h0a.66.66,0,0,1,0,.14c-.08.81-.13,1.58-.19,2.3,0,0,0,.06,0,.09,0,.34-.05.66-.07,1a.66.66,0,0,0,0,.14c-.08.89-.13,1.67-.17,2.29,0,0,0,.06,0,.09-.06.9-.09,1.43-.1,1.44h0a137.38,137.38,0,0,0,.73,18.36l.48,0c0,.41.05.83.08,1.25v.12c.27,4.15.61,8.33,1,10.8.8,5.31,4.2,19.18,5,22.46a.62.62,0,0,0-.27.13,11.62,11.62,0,0,1-3.95,1.79c-1.18.17-1.24.75.42.75s2.87-.14,3.61-.12,1,.12,2.84.12c1.4,0,.49-1.78,0-2.6a.76.76,0,0,0-.75-.35c-.21-2.87-1-13.7-2.29-22.88-.34-2.39.26-5.66.15-10.75v-.05c0-.46,0-.9,0-1.33l1.69-.19,0,1.21c0,.05,0,.11,0,.17.14,4.4.38,8.95.78,11.59.81,5.36,5.12,18.59,6.4,22.49h0a.66.66,0,0,0-.34.15,6.79,6.79,0,0,1-2.81,1.79c-1.11.17-1.17.75.4.75s1.79-.14,2.49-.12,1,.12,2.68.12c1.32,0,.46-1.78,0-2.6a.67.67,0,0,0-.48-.34c-.58-3.74-3-20.07-4-23.52-.73-2.43.39-6.59.53-11,0-.06,0-.11,0-.17l0-1.22.21,0s3.16-10.63-1.14-16.78h0q0-.71-.06-1.44v-.07q0-1.12.06-2.31a.19.19,0,0,1,0-.08c0-.35,0-.68.07-1,0,0,0-.07,0-.1.06-.76.14-1.52.24-2.29,0,0,0-.06,0-.08,0-.35.09-.69.14-1,0,0,0-.08,0-.11l.21-1.29a10.53,10.53,0,0,0,2.16-1.18c.73,2.64,1.48,4.87,2.08,5.54,2.81,3.13,12.43,4.91,14,5.32a6.69,6.69,0,0,1,2,2.12,1.37,1.37,0,0,0,1.2.72,4.14,4.14,0,0,0,1.21-.2C184.37,120.05,184.23,119.39,183.87,118.72ZM148.82,88.84a1.73,1.73,0,0,1,.33-1,7.08,7.08,0,0,0,1.37,2.79A1.77,1.77,0,0,1,148.82,88.84Z"/><path class="cls-45" d="M222.41,162.56c0,1.24-14.14,2.24-31.57,2.24s-31.56-1-31.56-2.24,14.13-2.24,31.56-2.24S222.41,161.33,222.41,162.56Z"/><line class="cls-97" x1="17.23" y1="39.76" x2="12.2" y2="42.78"/><line class="cls-97" x1="15.25" y1="30.42" x2="9.29" y2="29.81"/><line class="cls-97" x1="16.22" y1="35.71" x2="13.37" y2="36.29"/><line class="cls-97" x1="17.79" y1="25.66" x2="16.67" y2="23.59"/><path class="cls-98" d="M186.7,83.23a4.35,4.35,0,0,0,4-4.36,4.4,4.4,0,0,0-3.2-4.24A5,5,0,0,0,178.27,73a2.19,2.19,0,0,0-.52,0A2.72,2.72,0,0,0,175,75.66a2.76,2.76,0,0,0,.06.57,3.75,3.75,0,0,0-1.56,3,4,4,0,0,0,3.57,4h9.6Zm-9.56-1a3,3,0,0,1-2.66-3,2.82,2.82,0,0,1,1.4-2.43.47.47,0,0,0,.21-.58,1.76,1.76,0,0,1,1.66-2.37,1.81,1.81,0,0,1,.61.1.47.47,0,0,0,.59-.25,4,4,0,0,1,7.64,1.33.47.47,0,0,0,.39.42,3.43,3.43,0,0,1-.32,6.78Z"/><path class="cls-98" d="M174.77,89.34a1.29,1.29,0,1,1,1.52-1.26A1.39,1.39,0,0,1,174.77,89.34Zm0-1.73c-.52,0-.86.28-.86.47s.34.46.86.46.86-.28.86-.46S175.28,87.61,174.77,87.61Z"/><path class="cls-98" d="M178.68,87.61a1.85,1.85,0,1,1,2.14-1.82A2,2,0,0,1,178.68,87.61Zm0-2.85c-.9,0-1.53.54-1.53,1s.63,1,1.53,1,1.53-.54,1.53-1S179.58,84.76,178.68,84.76Z"/><path class="cls-98" d="M180.22,80.4l-.19,0a.84.84,0,0,1-.53-.39l-.9-1.53a.83.83,0,1,1,1.43-.84l.45.77,4-2.65a.83.83,0,1,1,.92,1.38l-4.68,3.14A.86.86,0,0,1,180.22,80.4Z"/></g></g></g></svg>