<svg xmlns="http://www.w3.org/2000/svg" viewBox="0 0 573.11 478.91"><defs><style>.cls-1{fill:#a53094;}.cls-1,.cls-2{opacity:0.7;}.cls-2{fill:#a52f95;}</style></defs><title>waves</title><g id="Layer_2" data-name="Layer 2"><g id="Capa_1" data-name="Capa 1"><path class="cls-1" d="M401.21,327.15c-8.78-35.31-25.69-106.24-59-170.44,9.14,28,15,57.54,20,86.72,10.56,61.54,19.92,120.64,51.62,175.62,16.46,28.53,28.75,45.57,44.22,59.86h115a102,102,0,0,1-7.63-8.46C508.16,398.45,436.16,467.65,401.21,327.15Z"/><path class="cls-2" d="M222.28,35.56C276.4,55.74,314.84,104,342.21,156.71c-14.6-44.73-37.49-85.5-78.29-114.47l-1.7-1.2c-1-.71-2.05-1.41-3.08-2.1A228.45,228.45,0,0,0,227,21.12C155.09-11.69,70-4.32,0,29.77v2.42c9.61-1.47,19.16-3,28.63-4.68C90.24,16.86,162.82,13.38,222.28,35.56Z"/><path class="cls-1" d="M413.87,419.05c-31.7-55-41.06-114.08-51.62-175.62-5-29.18-10.9-58.72-20-86.72C314.84,104,276.4,55.74,222.28,35.56c-59.46-22.18-132-18.7-193.65-8-9.47,1.63-19,3.21-28.63,4.68V478.91H458.09C442.62,464.62,430.33,447.58,413.87,419.05Z"/><path class="cls-2" d="M413.87,419.05c-31.7-55-41.06-114.08-51.62-175.62-5-29.18-10.9-58.72-20-86.72C314.84,104,276.4,55.74,222.28,35.56c-59.46-22.18-132-18.7-193.65-8-9.47,1.63-19,3.21-28.63,4.68V478.91H458.09C442.62,464.62,430.33,447.58,413.87,419.05Z"/></g></g></svg>